<svg width="24" height="24" viewBox="0 0 24 24" fill="none" xmlns="http://www.w3.org/2000/svg">
<g id="Size=Medium">
<path id="Vector" d="M18.0018 9.75095C18.0018 8.66744 17.7883 7.59454 17.3737 6.59351C16.9591 5.59247 16.3513 4.68291 15.5852 3.91675C14.819 3.15059 13.9094 2.54284 12.9084 2.1282C11.9074 1.71356 10.8345 1.50015 9.75095 1.50015C8.66744 1.50015 7.59454 1.71356 6.59351 2.1282C5.59247 2.54284 4.68291 3.15059 3.91675 3.91675C3.15059 4.68291 2.54284 5.59247 2.1282 6.59351C1.71356 7.59454 1.50015 8.66744 1.50015 9.75095C1.50015 10.8345 1.71356 11.9074 2.1282 12.9084C2.54284 13.9094 3.15059 14.819 3.91675 15.5852C4.68291 16.3513 5.59247 16.9591 6.59351 17.3737C7.59454 17.7883 8.66744 18.0018 9.75095 18.0018C10.8345 18.0018 11.9074 17.7883 12.9084 17.3737C13.9094 16.9591 14.819 16.3513 15.5852 15.5852C16.3513 14.819 16.9591 13.9094 17.3737 12.9084C17.7883 11.9074 18.0018 10.8345 18.0018 9.75095ZM16.0938 17.1579C14.392 18.6206 12.1746 19.5019 9.75095 19.5019C4.36449 19.5019 0 15.1374 0 9.75095C0 4.36449 4.36449 0 9.75095 0C15.1374 0 19.5019 4.36449 19.5019 9.75095C19.5019 12.1746 18.6206 14.392 17.1579 16.0938L23.782 22.7225C24.0727 23.0132 24.0727 23.4914 23.782 23.782C23.4914 24.0727 23.0132 24.0727 22.7225 23.782L16.0938 17.1579Z" fill="#1B1B1B"/>
</g>
</svg>
