<svg width="24" height="24" viewBox="0 0 24 24" fill="none" xmlns="http://www.w3.org/2000/svg">
<g id="Size=Medium">
<path id="Vector" d="M12.9231 0.923077C12.9231 0.415385 12.5077 0 12 0C11.4923 0 11.0769 0.415385 11.0769 0.923077V11.0769H0.923077C0.415385 11.0769 0 11.4923 0 12C0 12.5077 0.415385 12.9231 0.923077 12.9231H11.0769V23.0769C11.0769 23.5846 11.4923 24 12 24C12.5077 24 12.9231 23.5846 12.9231 23.0769V12.9231H23.0769C23.5846 12.9231 24 12.5077 24 12C24 11.4923 23.5846 11.0769 23.0769 11.0769H12.9231V0.923077Z" fill="#1B1B1B"/>
</g>
</svg>
