<svg width="24" height="24" viewBox="0 0 24 24" fill="none" xmlns="http://www.w3.org/2000/svg">
<g id="Size=Medium">
<path id="Vector" d="M8.95312 2H15C15.9844 2 16.8281 2.65625 17.1562 3.54688L17.625 5H21C22.6406 5 24 6.35938 24 8V20C24 21.6875 22.6406 23 21 23H3C1.3125 23 0 21.6875 0 20V8C0 6.35938 1.3125 5 3 5H6.32812L6.79688 3.54688C7.125 2.65625 7.96875 2 8.95312 2ZM8.20312 4.01562L7.54688 6.03125C7.45312 6.3125 7.17188 6.5 6.84375 6.5H3C2.15625 6.5 1.5 7.20312 1.5 8V20C1.5 20.8438 2.15625 21.5 3 21.5H21C21.7969 21.5 22.5 20.8438 22.5 20V8C22.5 7.20312 21.7969 6.5 21 6.5H17.1094C16.7812 6.5 16.5 6.3125 16.4062 5.98438L15.75 4.01562C15.6094 3.73438 15.3281 3.5 15 3.5H8.95312C8.625 3.5 8.34375 3.73438 8.20312 4.01562ZM12 19.25C10.0781 19.25 8.39062 18.2656 7.45312 16.625C6.46875 15.0312 6.46875 13.0156 7.45312 11.375C8.39062 9.78125 10.0781 8.75 12 8.75C13.875 8.75 15.5625 9.78125 16.5 11.375C17.4844 13.0156 17.4844 15.0312 16.5 16.625C15.5625 18.2656 13.875 19.25 12 19.25ZM8.25 14C8.25 15.3594 8.95312 16.5781 10.125 17.2812C11.25 17.9375 12.7031 17.9375 13.875 17.2812C15 16.5781 15.75 15.3594 15.75 14C15.75 12.6875 15 11.4688 13.875 10.7656C12.7031 10.1094 11.25 10.1094 10.125 10.7656C8.95312 11.4688 8.25 12.6875 8.25 14Z" fill="#1B1B1B"/>
</g>
</svg>
