<svg width="24" height="24" viewBox="0 0 24 24" fill="none" xmlns="http://www.w3.org/2000/svg">
<g id="Size=Medium">
<path id="Vector" d="M3 4.5C2.15625 4.5 1.5 5.20312 1.5 6V7.875L10.6406 14.625C11.4375 15.1875 12.5156 15.1875 13.3125 14.625L22.5 7.875V6C22.5 5.20312 21.7969 4.5 21 4.5H3ZM1.5 9.75V18C1.5 18.8438 2.15625 19.5 3 19.5H21C21.7969 19.5 22.5 18.8438 22.5 18V9.75L14.2031 15.8438C12.8906 16.7812 11.0625 16.7812 9.75 15.8438L1.5 9.75ZM0 6C0 4.35938 1.3125 3 3 3H21C22.6406 3 24 4.35938 24 6V18C24 19.6875 22.6406 21 21 21H3C1.3125 21 0 19.6875 0 18V6Z" fill="#1B1B1B"/>
</g>
</svg>
