<svg width="24" height="24" viewBox="0 0 24 24" fill="none" xmlns="http://www.w3.org/2000/svg">
<g id="Size=Medium">
<path id="Vector" d="M3 3.5C2.15625 3.5 1.5 4.20312 1.5 5V8H22.5V5C22.5 4.20312 21.7969 3.5 21 3.5H3ZM1.5 9.5V14.75H11.25V9.5H1.5ZM12.75 9.5V14.75H22.5V9.5H12.75ZM11.25 16.25H1.5V20C1.5 20.8438 2.15625 21.5 3 21.5H11.25V16.25ZM12.75 21.5H21C21.7969 21.5 22.5 20.8438 22.5 20V16.25H12.75V21.5ZM0 5C0 3.35938 1.3125 2 3 2H21C22.6406 2 24 3.35938 24 5V20C24 21.6875 22.6406 23 21 23H3C1.3125 23 0 21.6875 0 20V5Z" fill="#1B1B1B"/>
</g>
</svg>
