<svg width="24" height="24" viewBox="0 0 24 24" fill="none" xmlns="http://www.w3.org/2000/svg">
<g id="Size=Medium">
<path id="Vector" d="M2.20312 14.0994C0.796875 12.7869 0 10.9119 0 8.94311V8.70873C0 5.42748 2.34375 2.61498 5.57812 2.09936C7.73438 1.72436 9.89062 2.42748 11.4375 3.92748L12 4.48998L12.5625 3.92748C14.0625 2.42748 16.2656 1.72436 18.375 2.09936C21.6094 2.61498 24 5.42748 24 8.70873V8.94311C24 10.9119 23.1562 12.7869 21.75 14.0994L13.2656 22.0212C12.9375 22.3494 12.4688 22.49 12 22.49C11.4844 22.49 11.0156 22.3494 10.6875 22.0212L2.20312 14.0994Z" fill="#1B1B1B"/>
</g>
</svg>
