<svg width="24" height="24" viewBox="0 0 24 24" fill="none" xmlns="http://www.w3.org/2000/svg">
<g id="Size=Medium">
<path id="Vector" d="M20 16.5C20.7969 16.5 21.5 15.8438 21.5 15V5.4375C21.5 5.25 21.4062 5.0625 21.2656 4.92188L18.0781 1.73438C17.9375 1.59375 17.75 1.5 17.5625 1.5H12.5C11.6562 1.5 11 2.20312 11 3V15C11 15.8438 11.6562 16.5 12.5 16.5H20ZM22.2969 3.84375C22.7188 4.26562 23 4.875 23 5.4375V15C23 16.6875 21.6406 18 20 18H12.5C10.8125 18 9.5 16.6875 9.5 15V3C9.5 1.35938 10.8125 0 12.5 0H17.5625C18.125 0 18.7344 0.28125 19.1562 0.703125L22.2969 3.84375ZM5 6H8V7.5H5C4.15625 7.5 3.5 8.20312 3.5 9V21C3.5 21.8438 4.15625 22.5 5 22.5H12.5C13.2969 22.5 14 21.8438 14 21V19.5H15.5V21C15.5 22.6875 14.1406 24 12.5 24H5C3.3125 24 2 22.6875 2 21V9C2 7.35938 3.3125 6 5 6Z" fill="#1B1B1B"/>
</g>
</svg>
