<svg width="24" height="24" viewBox="0 0 24 24" fill="none" xmlns="http://www.w3.org/2000/svg">
<g id="Size=Medium">
<path id="Vector" d="M9.75095 1.50015C10.8345 1.50015 11.9074 1.71356 12.9084 2.1282C13.9094 2.54284 14.819 3.15059 15.5852 3.91675C16.3513 4.68291 16.9591 5.59247 17.3737 6.59351C17.7883 7.59454 18.0018 8.66744 18.0018 9.75095C18.0018 10.8345 17.7883 11.9074 17.3737 12.9084C16.9591 13.9094 16.3513 14.819 15.5852 15.5852C14.819 16.3513 13.9094 16.9591 12.9084 17.3737C11.9074 17.7883 10.8345 18.0018 9.75095 18.0018C8.66744 18.0018 7.59454 17.7883 6.59351 17.3737C5.59247 16.9591 4.68291 16.3513 3.91675 15.5852C3.15059 14.819 2.54284 13.9094 2.1282 12.9084C1.71356 11.9074 1.50015 10.8345 1.50015 9.75095C1.50015 8.66744 1.71356 7.59454 2.1282 6.59351C2.54284 5.59247 3.15059 4.68291 3.91675 3.91675C4.68291 3.15059 5.59247 2.54284 6.59351 2.1282C7.59454 1.71356 8.66744 1.50015 9.75095 1.50015ZM9.75095 19.5019C12.1746 19.5019 14.392 18.6206 16.0938 17.1579L22.7225 23.782C23.0132 24.0727 23.4914 24.0727 23.782 23.782C24.0727 23.4914 24.0727 23.0132 23.782 22.7225L17.1579 16.0938C18.6206 14.3873 19.5019 12.1699 19.5019 9.75095C19.5019 4.36449 15.1374 0 9.75095 0C4.36449 0 0 4.36449 0 9.75095C0 15.1374 4.36449 19.5019 9.75095 19.5019ZM9.00088 14.2514C9.00088 14.6639 9.33841 15.0015 9.75095 15.0015C10.1635 15.0015 10.501 14.6639 10.501 14.2514V10.501H14.2514C14.6639 10.501 15.0015 10.1635 15.0015 9.75095C15.0015 9.33841 14.6639 9.00088 14.2514 9.00088H10.501V5.25051C10.501 4.83797 10.1635 4.50044 9.75095 4.50044C9.33841 4.50044 9.00088 4.83797 9.00088 5.25051V9.00088H5.25051C4.83797 9.00088 4.50044 9.33841 4.50044 9.75095C4.50044 10.1635 4.83797 10.501 5.25051 10.501H9.00088V14.2514Z" fill="#1B1B1B"/>
</g>
</svg>
