<svg width="24" height="24" viewBox="0 0 24 24" fill="none" xmlns="http://www.w3.org/2000/svg">
<g id="Size=Medium">
<path id="Vector" d="M0 3.42855C0 2.95713 0.385714 2.57141 0.857143 2.57141H23.1429C23.6143 2.57141 24 2.95713 24 3.42855C24 3.89998 23.6143 4.2857 23.1429 4.2857H0.857143C0.385714 4.2857 0 3.89998 0 3.42855ZM0 12C0 11.5286 0.385714 11.1428 0.857143 11.1428H23.1429C23.6143 11.1428 24 11.5286 24 12C24 12.4714 23.6143 12.8571 23.1429 12.8571H0.857143C0.385714 12.8571 0 12.4714 0 12ZM24 20.5714C24 21.0428 23.6143 21.4286 23.1429 21.4286H0.857143C0.385714 21.4286 0 21.0428 0 20.5714C0 20.1 0.385714 19.7143 0.857143 19.7143H23.1429C23.6143 19.7143 24 20.1 24 20.5714Z" fill="#1B1B1B"/>
</g>
</svg>
