<svg width="24" height="24" viewBox="0 0 24 24" fill="none" xmlns="http://www.w3.org/2000/svg">
<g id="Size=Medium">
<path id="Vector" d="M18 22.5C18.7969 22.5 19.5 21.8438 19.5 21V9H14.25C12.9844 9 12 8.01562 12 6.75V1.5H6C5.15625 1.5 4.5 2.20312 4.5 3V21C4.5 21.8438 5.15625 22.5 6 22.5H18ZM14.25 7.5H19.4531C19.4062 7.40625 19.3594 7.26562 19.2656 7.17188L13.8281 1.73438C13.7344 1.64062 13.5938 1.59375 13.5 1.54688V6.75C13.5 7.17188 13.8281 7.5 14.25 7.5ZM6 0H13.3125C13.875 0 14.4844 0.28125 14.9062 0.703125L20.2969 6.09375C20.7188 6.51562 21 7.125 21 7.6875V21C21 22.6875 19.6406 24 18 24H6C4.3125 24 3 22.6875 3 21V3C3 1.35938 4.3125 0 6 0ZM9.98438 11.5781L12 14.4844L13.9688 11.5781C14.25 11.25 14.7188 11.1562 15.0469 11.3906C15.375 11.625 15.4688 12.0938 15.2344 12.4688L12.8906 15.75L15.2344 19.0781C15.4688 19.4531 15.375 19.875 15.0469 20.1562C14.6719 20.3906 14.25 20.2969 13.9688 19.9688L12 17.0625L9.98438 19.9688C9.75 20.2969 9.28125 20.3906 8.90625 20.1562C8.57812 19.875 8.48438 19.4062 8.71875 19.0781L11.0625 15.75L8.71875 12.4688C8.48438 12.0938 8.57812 11.625 8.90625 11.3906C9.28125 11.1562 9.75 11.25 9.98438 11.5781Z" fill="#1B1B1B"/>
</g>
</svg>
