<svg width="24" height="24" viewBox="0 0 24 24" fill="none" xmlns="http://www.w3.org/2000/svg">
<g id="Size=Medium" clip-path="url(#clip0_4402_139)">
<path id="Vector" d="M12.0234 24C7.71094 24 3.77344 21.75 1.61719 18C-0.539062 14.2969 -0.539062 9.75 1.61719 6C3.77344 2.29688 7.71094 0 12.0234 0C16.2891 0 20.2266 2.29688 22.3828 6C24.5391 9.75 24.5391 14.2969 22.3828 18C20.2266 21.75 16.2891 24 12.0234 24ZM10.1484 15.75C9.49219 15.75 9.02344 16.2656 9.02344 16.875C9.02344 17.5312 9.49219 18 10.1484 18H13.8984C14.5078 18 15.0234 17.5312 15.0234 16.875C15.0234 16.2656 14.5078 15.75 13.8984 15.75H13.5234V11.625C13.5234 11.0156 13.0078 10.5 12.3984 10.5H10.1484C9.49219 10.5 9.02344 11.0156 9.02344 11.625C9.02344 12.2812 9.49219 12.75 10.1484 12.75H11.2734V15.75H10.1484ZM12.0234 6C11.1797 6 10.5234 6.70312 10.5234 7.5C10.5234 8.34375 11.1797 9 12.0234 9C12.8203 9 13.5234 8.34375 13.5234 7.5C13.5234 6.70312 12.8203 6 12.0234 6Z" fill="#1B1B1B"/>
</g>
<defs>
<clipPath id="clip0_4402_139">
<rect width="24" height="24" fill="white"/>
</clipPath>
</defs>
</svg>
