<svg width="24" height="24" viewBox="0 0 24 24" fill="none" xmlns="http://www.w3.org/2000/svg">
<g clip-path="url(#clip0_4463_302)">
<path d="M22.1719 0.0306495C23.1094 -0.158271 24 0.550182 24 1.49479V7.72918H23.9531C23.9531 7.82364 24 7.87087 24 7.9181C24 9.28778 22.6406 10.3741 21 10.3741C19.3125 10.3741 18 9.28778 18 7.9181C18 6.59565 19.3125 5.46213 21 5.46213C21.5156 5.46213 22.0312 5.60382 22.5 5.79274V1.49479L16.5 2.72277V9.24055H16.4531C16.4531 9.33501 16.5 9.38224 16.5 9.42947C16.5 10.7991 15.1406 11.8854 13.5 11.8854C11.8125 11.8854 10.5 10.7991 10.5 9.42947C10.5 8.10702 11.8125 6.9735 13.5 6.9735C14.0156 6.9735 14.5312 7.11519 15 7.30411V2.72277C15 1.96709 15.4688 1.3531 16.1719 1.21141L22.1719 0.0306495ZM22.5 7.9181C22.5 7.77641 22.4062 7.58749 22.1719 7.39857C21.8906 7.16242 21.4688 6.9735 21 6.9735C20.4844 6.9735 20.0625 7.16242 19.7812 7.39857C19.5469 7.58749 19.5 7.77641 19.5 7.9181C19.5 8.10702 19.5469 8.29594 19.7812 8.48486C20.0625 8.72101 20.4844 8.86271 21 8.86271C21.4688 8.86271 21.8906 8.72101 22.1719 8.48486C22.4062 8.29594 22.5 8.10702 22.5 7.9181ZM15 9.42947C15 9.28778 14.9062 9.09886 14.6719 8.90994C14.3906 8.67379 13.9688 8.48486 13.5 8.48486C12.9844 8.48486 12.5625 8.67379 12.2812 8.90994C12.0469 9.09886 12 9.28778 12 9.42947C12 9.61839 12.0469 9.80731 12.2812 9.99623C12.5625 10.2324 12.9844 10.3741 13.5 10.3741C13.9688 10.3741 14.3906 10.2324 14.6719 9.99623C14.9062 9.80731 15 9.61839 15 9.42947ZM4.92188 2.39216L4.64062 2.10878C4.21875 1.68371 3.60938 1.49479 3.04688 1.58925C2.15625 1.73094 1.5 2.53385 1.5 3.43123V3.57292C1.5 4.13968 1.6875 4.65921 2.10938 5.03706L6 8.67379L9.84375 5.03706C10.2656 4.65921 10.5 4.13968 10.5 3.57292V3.43123C10.5 2.53385 9.84375 1.73094 8.95312 1.58925C8.34375 1.49479 7.73438 1.68371 7.3125 2.10878L7.03125 2.39216L6 3.47846L4.92188 2.39216ZM2.76562 0.0778798C3.84375 -0.063811 4.92188 0.266801 5.71875 1.02248L6 1.30587L6.28125 1.02248C7.03125 0.266801 8.10938 -0.063811 9.1875 0.0778798C10.7812 0.361261 12 1.77817 12 3.43123V3.57292C12 4.56475 11.5781 5.46213 10.875 6.17058L6.60938 10.1379C6.46875 10.2796 6.23438 10.3741 6 10.3741C5.71875 10.3741 5.48438 10.2796 5.34375 10.1379L1.07812 6.17058C0.375 5.46213 0 4.56475 0 3.57292V3.43123C0 1.77817 1.17188 0.361261 2.76562 0.0778798ZM3.375 14.9082H2.25C1.82812 14.9082 1.5 15.286 1.5 15.6639V21.7093C1.5 22.1344 1.82812 22.465 2.25 22.465H11.25C11.625 22.465 12 22.1344 12 21.7093V15.6639C12 15.286 11.625 14.9082 11.25 14.9082H10.125C9.51562 14.9082 9 14.6248 8.76562 14.1053L8.4375 13.3968H5.01562L4.6875 14.1053C4.45312 14.6248 3.9375 14.9082 3.375 14.9082ZM9.75 12.7356L10.125 13.3968H11.25C12.4688 13.3968 13.5 14.4359 13.5 15.6639V21.7093C13.5 22.9845 12.4688 23.9764 11.25 23.9764H2.25C0.984375 23.9764 0 22.9845 0 21.7093V15.6639C0 14.4359 0.984375 13.3968 2.25 13.3968H3.375L3.70312 12.7356C3.9375 12.2161 4.45312 11.8854 5.01562 11.8854H8.4375C9 11.8854 9.51562 12.2161 9.75 12.7356ZM5.25 18.3088C5.25 19.1589 5.90625 19.8201 6.75 19.8201C7.54688 19.8201 8.25 19.1589 8.25 18.3088C8.25 17.5058 7.54688 16.7974 6.75 16.7974C5.90625 16.7974 5.25 17.5058 5.25 18.3088ZM6.75 21.3315C5.67188 21.3315 4.6875 20.7647 4.125 19.8201C3.60938 18.9227 3.60938 17.742 4.125 16.7974C4.6875 15.9 5.67188 15.286 6.75 15.286C7.78125 15.286 8.76562 15.9 9.32812 16.7974C9.84375 17.742 9.84375 18.9227 9.32812 19.8201C8.76562 20.7647 7.78125 21.3315 6.75 21.3315ZM22.2656 13.2079L18.2812 17.1752H22.5C22.7812 17.1752 23.0625 17.3641 23.1562 17.6475C23.2969 17.9309 23.2031 18.2615 23.0156 18.4977L17.7656 23.7875C17.4844 24.0708 16.9688 24.0708 16.6875 23.7875C16.4062 23.5041 16.4062 22.9845 16.6875 22.7012L20.6719 18.6866H16.5C16.1719 18.6866 15.8906 18.5449 15.7969 18.2615C15.6562 17.9781 15.75 17.6475 15.9375 17.4114L21.1875 12.1216C21.4688 11.8382 21.9844 11.8382 22.2656 12.1216C22.5469 12.405 22.5469 12.9245 22.2656 13.2079Z" fill="#1B1B1B"/>
</g>
<defs>
<clipPath id="clip0_4463_302">
<rect width="24" height="24" fill="white"/>
</clipPath>
</defs>
</svg>
