<svg width="24" height="24" viewBox="0 0 24 24" fill="none" xmlns="http://www.w3.org/2000/svg">
<g id="Size=Medium">
<path id="Vector" d="M0.971893 2.52717C0.713175 2.3247 0.334472 2.36969 0.128247 2.62841C-0.0779774 2.88713 -0.0292334 3.26583 0.229485 3.47205L23.0267 21.4698C23.2854 21.6761 23.6641 21.6311 23.8703 21.3723C24.0765 21.1136 24.0315 20.7349 23.7728 20.5287L0.971893 2.52717ZM22.7042 12.4597C22.8279 12.1635 22.8279 11.8335 22.7042 11.5373C22.1455 10.1987 20.9719 8.24897 19.2171 6.62167C17.4549 4.97937 15.0289 3.59954 11.9993 3.59954C10.0795 3.59954 8.39973 4.15447 6.97865 4.97937L8.00227 5.78552C9.17213 5.18184 10.507 4.79939 11.9993 4.79939C14.639 4.79939 16.7874 5.99924 18.4035 7.49906C20.0195 8.99887 21.0994 10.7986 21.5981 11.9985C21.2531 12.8271 20.627 13.9483 19.7421 15.0544L20.6832 15.7968C21.6431 14.5969 22.3218 13.3821 22.7042 12.4597ZM3.31535 8.20022C2.35547 9.40007 1.67681 10.6149 1.29435 11.5373C1.17062 11.8335 1.17062 12.1635 1.29435 12.4597C1.85303 13.7983 3.02664 15.748 4.78142 17.3753C6.5437 19.0176 8.96966 20.3975 11.9993 20.3975C13.919 20.3975 15.5988 19.8425 17.0199 19.0176L15.9963 18.2115C14.8264 18.8152 13.4916 19.1976 11.9993 19.1976C9.35961 19.1976 7.21112 17.9978 5.59507 16.4979C3.97902 14.9981 2.89916 13.1984 2.40047 11.9985C2.74542 11.1699 3.3716 10.0487 4.25649 8.94263L3.31535 8.20022ZM11.9993 16.7979C12.6255 16.7979 13.2254 16.6779 13.7766 16.4567L12.618 15.5418C12.4155 15.5756 12.2093 15.5943 11.9993 15.5943C10.087 15.5943 8.51971 14.102 8.40722 12.216L7.24862 11.3011C7.21487 11.5261 7.19987 11.7585 7.19987 11.9948C7.19987 14.6457 9.34836 16.7942 11.9993 16.7942V16.7979ZM16.7987 11.9985C16.7987 9.34758 14.6502 7.19909 11.9993 7.19909C11.3731 7.19909 10.7732 7.31908 10.222 7.5403L11.3806 8.45519C11.5831 8.42144 11.7893 8.4027 11.9993 8.4027C13.9115 8.4027 15.4789 9.89501 15.5913 11.781L16.7499 12.6959C16.7837 12.4709 16.7987 12.2385 16.7987 12.0023V11.9985Z" fill="#1B1B1B"/>
</g>
</svg>
