<svg width="24" height="24" viewBox="0 0 24 24" fill="none" xmlns="http://www.w3.org/2000/svg">
<g id="Size=Medium">
<path id="Vector" d="M3.73438 10.3906C3.64062 10.7656 3.3125 11 2.98438 11C2.51562 11 2.14062 10.625 2.23438 10.1562C3.3125 5.51562 7.48438 2 12.5 2C16.2969 2 19.625 4.0625 21.5 7.10938V4.25C21.5 3.875 21.8281 3.5 22.25 3.5C22.625 3.5 23 3.875 23 4.25V8.75C23 9.17188 22.625 9.5 22.25 9.5H21.5H17.75C17.3281 9.5 17 9.17188 17 8.75C17 8.375 17.3281 8 17.75 8H20.2812C18.7344 5.32812 15.8281 3.5 12.5 3.5C8.23438 3.5 4.67188 6.45312 3.73438 10.3906ZM21.2188 14.6562C21.3125 14.2812 21.6406 14 22.0156 14C22.4375 14 22.8125 14.4219 22.7188 14.8906C21.6406 19.5312 17.4688 23 12.5 23C8.65625 23 5.32812 20.9844 3.5 17.9375V20.75C3.5 21.1719 3.17188 21.5 2.75 21.5C2.32812 21.5 2 21.1719 2 20.75V16.25C2 15.875 2.32812 15.5 2.75 15.5H3.45312H7.25C7.67188 15.5 8 15.875 8 16.25C8 16.6719 7.67188 17 7.25 17H4.67188C6.21875 19.7188 9.125 21.5 12.5 21.5C16.7188 21.5 20.2812 18.5938 21.2188 14.6562Z" fill="#1B1B1B"/>
</g>
</svg>
