<svg width="24" height="24" viewBox="0 0 24 24" fill="none" xmlns="http://www.w3.org/2000/svg">
<g id="Size=Medium">
<path id="Vector" d="M13.5 19.7031C13.6875 20.3125 14.2969 20.6406 14.9062 20.5C15.5156 20.3125 15.8438 19.7031 15.7031 19.0938L15.4688 18.3438C15.2344 17.3594 14.8125 16.4688 14.2969 15.6719C14.1562 15.4375 14.1562 15.1562 14.2969 14.9219C14.4375 14.6406 14.6719 14.5 14.9531 14.5H21C21.7969 14.5 22.5 13.8438 22.5 13C22.5 12.4844 22.2188 12.0156 21.7969 11.7344C21.4688 11.5469 21.3281 11.0781 21.5156 10.75C21.6562 10.5156 21.75 10.2812 21.75 10C21.75 9.4375 21.4219 8.92188 20.9062 8.6875C20.7188 8.59375 20.5781 8.40625 20.5312 8.17188C20.4844 7.9375 20.5312 7.75 20.6719 7.5625C20.8594 7.28125 21 7 21 6.625C21 5.96875 20.5312 5.40625 19.9688 5.21875C19.5938 5.07812 19.3594 4.70312 19.4531 4.32812C19.4531 4.23438 19.5 4.14062 19.5 4C19.5 3.20312 18.7969 2.5 18 2.5H13.7812C13.0312 2.5 12.3281 2.73438 11.7188 3.15625L9.89062 4.375C9.46875 4.65625 9.14062 4.98438 8.85938 5.40625C8.625 5.78125 8.15625 5.875 7.82812 5.64062C7.45312 5.40625 7.35938 4.9375 7.59375 4.60938C7.96875 4 8.48438 3.48438 9.04688 3.10938L10.875 1.89062C11.7188 1.32812 12.75 1 13.7812 1H18C19.6406 1 21 2.35938 21 4V4.04688C21.8906 4.5625 22.5 5.54688 22.5 6.625C22.5 7.04688 22.4062 7.46875 22.2656 7.79688C22.8281 8.35938 23.25 9.15625 23.25 10C23.25 10.3281 23.2031 10.6094 23.1094 10.8906C23.625 11.4531 24 12.2031 24 13C24 14.6875 22.6406 16 21 16H16.2188C16.5 16.6562 16.7344 17.2656 16.9219 17.9219L17.1562 18.7188C17.5312 20.125 16.6875 21.5312 15.2812 21.9531C13.875 22.3281 12.4688 21.4844 12.0469 20.0781L11.8594 19.3281C11.4375 17.7812 10.4531 16.4688 9.14062 15.625L9 15.5312L9.375 14.9219L9 15.5312C8.4375 15.1562 7.96875 14.7344 7.59375 14.2188C7.35938 13.8438 7.45312 13.375 7.78125 13.1406C8.10938 12.9062 8.57812 13 8.8125 13.3281C9.09375 13.7031 9.42188 14.0312 9.79688 14.2656L9.9375 14.3594C11.5781 15.3906 12.7969 17.0312 13.3125 18.9062L13.5 19.7031ZM1.5 16H4.5V5.5H1.5V16ZM0 16V5.5C0 4.70312 0.65625 4 1.5 4H4.5C5.29688 4 6 4.70312 6 5.5V16C6 16.8438 5.29688 17.5 4.5 17.5H1.5C0.65625 17.5 0 16.8438 0 16Z" fill="#1B1B1B"/>
</g>
</svg>
