<svg width="24" height="24" viewBox="0 0 24 24" fill="none" xmlns="http://www.w3.org/2000/svg">
<g id="Size=Medium" clip-path="url(#clip0_6714_37)">
<path id="Vector" d="M15.3281 4.03125L18 3L18.9844 0.375C19.0312 0.140625 19.2656 0 19.5 0C19.6875 0 19.9219 0.140625 19.9688 0.375L21 3L23.625 4.03125C23.8594 4.07812 24 4.3125 24 4.5C24 4.73438 23.8594 4.96875 23.625 5.01562L21 6L19.9688 8.67188C19.9219 8.85938 19.6875 9 19.5 9C19.2656 9 19.0312 8.85938 18.9844 8.67188L18 6L15.3281 5.01562C15.1406 4.96875 15 4.73438 15 4.5C15 4.3125 15.1406 4.07812 15.3281 4.03125ZM9.60938 3.46875L12.0469 8.8125L17.3906 11.25C17.6719 11.3906 17.8594 11.6719 17.8594 11.9531C17.8594 12.2344 17.6719 12.5156 17.3906 12.6094L12.0469 15.0938L9.60938 20.4375C9.46875 20.7188 9.1875 20.9062 8.90625 20.9062C8.625 20.9062 8.34375 20.7188 8.25 20.4375L5.76562 15.0938L0.421875 12.6562C0.140625 12.5156 0 12.2344 0 11.9531C0 11.6719 0.140625 11.3906 0.421875 11.25L5.76562 8.8125L8.25 3.46875C8.34375 3.1875 8.625 3 8.90625 3C9.1875 3 9.46875 3.1875 9.60938 3.46875ZM18 18L18.9844 15.375C19.0312 15.1406 19.2656 15 19.5 15C19.6875 15 19.9219 15.1406 19.9688 15.375L21 18L23.625 19.0312C23.8594 19.0781 24 19.3125 24 19.5C24 19.7344 23.8594 19.9688 23.625 20.0156L21 21L19.9688 23.6719C19.9219 23.8594 19.6875 24 19.5 24C19.2656 24 19.0312 23.8594 18.9844 23.6719L18 21L15.3281 20.0156C15.1406 19.9688 15 19.7344 15 19.5C15 19.3125 15.1406 19.0781 15.3281 19.0312L18 18Z" fill="#1B1B1B"/>
</g>
<defs>
<clipPath id="clip0_6714_37">
<rect width="24" height="24" fill="white"/>
</clipPath>
</defs>
</svg>
