<svg width="16" height="16" viewBox="0 0 16 16" fill="none" xmlns="http://www.w3.org/2000/svg">
<g id="Size=Small">
<path id="Vector" d="M8 4.25C7.40625 4.25 6.875 3.96875 6.5625 3.4375C6.28125 2.9375 6.28125 2.34375 6.5625 1.8125C6.875 1.3125 7.40625 1 8 1C8.5625 1 9.09375 1.3125 9.40625 1.8125C9.6875 2.34375 9.6875 2.9375 9.40625 3.4375C9.09375 3.96875 8.5625 4.25 8 4.25ZM8 15.625C7.4375 15.625 7 15.1875 7 14.625C7 14.0938 7.4375 13.625 8 13.625C8.53125 13.625 9 14.0938 9 14.625C9 15.1875 8.53125 15.625 8 15.625ZM14 9.625C13.4375 9.625 13 9.1875 13 8.625C13 8.09375 13.4375 7.625 14 7.625C14.5312 7.625 15 8.09375 15 8.625C15 9.1875 14.5312 9.625 14 9.625ZM1 8.625C1 8.09375 1.4375 7.625 2 7.625C2.53125 7.625 3 8.09375 3 8.625C3 9.1875 2.53125 9.625 2 9.625C1.4375 9.625 1 9.1875 1 8.625ZM13.4688 5.625C13.0312 6.0625 12.375 6.25 11.7812 6.09375C11.1562 5.9375 10.6875 5.46875 10.5312 4.84375C10.375 4.25 10.5625 3.59375 11 3.15625C11.4375 2.71875 12.0625 2.53125 12.6875 2.71875C13.2812 2.875 13.75 3.34375 13.9062 3.9375C14.0938 4.5625 13.9062 5.1875 13.4688 5.625ZM3.03125 13.5938C2.65625 13.1875 2.65625 12.5625 3.03125 12.1875C3.4375 11.7812 4.0625 11.7812 4.4375 12.1875C4.84375 12.5625 4.84375 13.1875 4.4375 13.5938C4.0625 13.9688 3.4375 13.9688 3.03125 13.5938ZM11.5312 13.5938C11.125 13.1875 11.125 12.5625 11.5312 12.1875C11.9062 11.7812 12.5312 11.7812 12.9375 12.1875C13.3125 12.5625 13.3125 13.1875 12.9375 13.5938C12.5312 13.9688 11.9062 13.9688 11.5312 13.5938ZM2.6875 3.34375C3.0625 2.96875 3.625 2.8125 4.125 2.9375C4.65625 3.09375 5.0625 3.5 5.1875 4C5.34375 4.53125 5.1875 5.09375 4.8125 5.46875C4.4375 5.84375 3.875 6 3.34375 5.84375C2.84375 5.71875 2.4375 5.3125 2.28125 4.78125C2.15625 4.28125 2.3125 3.71875 2.6875 3.34375Z" fill="#1B1B1B"/>
</g>
</svg>
