<svg width="24" height="24" viewBox="0 0 24 24" fill="none" xmlns="http://www.w3.org/2000/svg">
<g id="Size=Medium">
<path id="Vector" d="M1.59375 20.2344C1.5 20.375 1.5 20.5156 1.5 20.6562C1.5 21.125 1.875 21.5469 2.34375 21.5469H21.6094C22.0781 21.5469 22.5 21.125 22.5 20.6562C22.5 20.5156 22.4531 20.375 22.3594 20.2344L12.9375 4.0625C12.75 3.73438 12.375 3.5 12 3.5C11.5781 3.5 11.2031 3.73438 11.0156 4.0625L1.59375 20.2344ZM0.28125 19.4844L9.70312 3.3125C10.1719 2.51562 11.0625 2 12 2C12.8906 2 13.7812 2.51562 14.25 3.3125L23.6719 19.4844C23.8594 19.8125 24 20.2344 24 20.6562C24 21.9688 22.9219 23 21.6094 23H2.34375C1.03125 23 0 21.9688 0 20.6562C0 20.2344 0.09375 19.8125 0.28125 19.4844ZM12 8C12.375 8 12.75 8.375 12.75 8.75V14.75C12.75 15.1719 12.375 15.5 12 15.5C11.5781 15.5 11.25 15.1719 11.25 14.75V8.75C11.25 8.375 11.5781 8 12 8ZM10.875 18.5C10.875 17.8906 11.3438 17.375 12 17.375C12.6094 17.375 13.125 17.8906 13.125 18.5C13.125 19.1562 12.6094 19.625 12 19.625C11.3438 19.625 10.875 19.1562 10.875 18.5Z" fill="#1B1B1B"/>
</g>
</svg>
