<svg width="24" height="24" viewBox="0 0 24 24" fill="none" xmlns="http://www.w3.org/2000/svg">
<g id="Size=Medium" clip-path="url(#clip0_4402_94)">
<path id="Vector" d="M23.7592 12.599L14.3411 21.7656C14.0201 22.0781 13.4314 22.0781 13.1104 21.7656C12.7893 21.4531 12.7893 20.8802 13.1104 20.5677L21.0836 12.8073L0.856187 12.8073C0.428094 12.8073 0 12.4427 0 11.974C0 11.5573 0.428094 11.1406 0.856187 11.1406L21.0836 11.1406L13.1104 3.43229C12.7893 3.11979 12.7893 2.54688 13.1104 2.23438C13.4314 1.92187 14.0201 1.92187 14.3411 2.23438L23.7592 11.401C24.0803 11.7135 24.0803 12.2865 23.7592 12.599Z" fill="#1B1B1B"/>
</g>
<defs>
<clipPath id="clip0_4402_94">
<rect width="24" height="24" fill="white"/>
</clipPath>
</defs>
</svg>
