<svg width="24" height="24" viewBox="0 0 24 24" fill="none" xmlns="http://www.w3.org/2000/svg">
<g id="Size=Medium">
<path id="Vector" d="M23.9796 1.70748L20.9769 21.231C20.93 21.7004 20.6485 22.1227 20.2263 22.3105C19.8509 22.5451 19.3348 22.5921 18.9126 22.4043L13.5641 20.1516L11.0775 23.2491C10.7021 23.7653 10.1391 24 9.5292 24C8.40319 24 7.51177 23.1083 7.51177 21.9819V17.6173L0.896483 14.8953C0.380397 14.6606 0.00506154 14.1913 0.00506154 13.5812C-0.0418554 13.018 0.239646 12.5018 0.755732 12.2202L21.7745 0.205665C22.2437 -0.0759251 22.9005 -0.0759251 23.3697 0.252596C23.8389 0.581118 24.0734 1.1443 23.9796 1.70748ZM12.1096 19.5884L9.01311 18.2743V21.9819C9.01311 22.3105 9.20078 22.4982 9.5292 22.4982C9.66995 22.4982 9.8107 22.4513 9.90453 22.3105L12.1096 19.5884ZM14.1271 18.7906L19.5225 20.9964L22.2437 3.30315L9.62303 16.9133L14.1271 18.7906ZM21.1177 2.27066L1.5064 13.4873L8.12169 16.2563L21.1177 2.27066Z" fill="#1B1B1B"/>
</g>
</svg>
