<svg width="24" height="24" viewBox="0 0 24 24" fill="none" xmlns="http://www.w3.org/2000/svg">
<g id="Size=Medium" clip-path="url(#clip0_4402_361)">
<path id="Vector" d="M17 5.97359C17 4.37751 16.1094 2.92225 14.75 2.07726C13.3438 1.27922 11.6094 1.27922 10.25 2.07726C8.84375 2.92225 8 4.37751 8 5.97359C8 7.61663 8.84375 9.07188 10.25 9.91687C11.6094 10.7149 13.3438 10.7149 14.75 9.91687C16.1094 9.07188 17 7.61663 17 5.97359ZM6.5 5.97359C6.5 3.86112 7.625 1.88949 9.5 0.80978C11.3281 -0.269927 13.625 -0.269927 15.5 0.80978C17.3281 1.88949 18.5 3.86112 18.5 5.97359C18.5 8.13301 17.3281 10.1046 15.5 11.1844C13.625 12.2641 11.3281 12.2641 9.5 11.1844C7.625 10.1046 6.5 8.13301 6.5 5.97359ZM3.5 22.4978H21.5C21.4062 18.7892 18.3594 15.7379 14.6094 15.7379H10.3438C6.59375 15.7379 3.54688 18.7892 3.5 22.4978ZM2 22.6386C2 17.9912 5.70312 14.2357 10.3438 14.2357H14.6094C19.25 14.2357 23 17.9912 23 22.6386C23 23.3897 22.3438 24 21.5938 24H3.35938C2.60938 24 2 23.3897 2 22.6386Z" fill="#1B1B1B"/>
</g>
<defs>
<clipPath id="clip0_4402_361">
<rect width="24" height="24" fill="white"/>
</clipPath>
</defs>
</svg>
