<svg width="24" height="24" viewBox="0 0 24 24" fill="none" xmlns="http://www.w3.org/2000/svg">
<g id="Size=Medium">
<path id="Vector" d="M3.09677 22.5H5.41935V24H3.09677C1.35484 24 0 22.6875 0 21V3C0 1.35938 1.35484 0 3.09677 0H10.6452C11.2258 0 11.8548 0.28125 12.2903 0.703125L17.8548 6.09375C18.2903 6.51562 18.5806 7.125 18.5806 7.6875V14.25H17.0323V9H11.6129C10.3065 9 9.29032 8.01562 9.29032 6.75V1.5H3.09677C2.22581 1.5 1.54839 2.20312 1.54839 3V21C1.54839 21.8438 2.22581 22.5 3.09677 22.5ZM16.9839 7.5C16.9355 7.40625 16.8871 7.26562 16.7903 7.17188L11.1774 1.73438C11.0806 1.64062 10.9355 1.59375 10.8387 1.54688V6.75C10.8387 7.17188 11.1774 7.5 11.6129 7.5H16.9839ZM8.51613 16.5H10.0645C11.5161 16.5 12.7742 17.7188 12.7742 19.125C12.7742 20.5781 11.5161 21.75 10.0645 21.75H9.29032V23.25C9.29032 23.6719 8.90323 24 8.51613 24C8.08064 24 7.74194 23.6719 7.74194 23.25V21V17.25C7.74194 16.875 8.08064 16.5 8.51613 16.5ZM10.0645 20.25C10.6935 20.25 11.2258 19.7812 11.2258 19.125C11.2258 18.5156 10.6935 18 10.0645 18H9.29032V20.25H10.0645ZM14.7097 16.5H16.2581C17.5161 16.5 18.5806 17.5312 18.5806 18.75V21.75C18.5806 23.0156 17.5161 24 16.2581 24H14.7097C14.2742 24 13.9355 23.6719 13.9355 23.25V17.25C13.9355 16.875 14.2742 16.5 14.7097 16.5ZM16.2581 22.5C16.6452 22.5 17.0323 22.1719 17.0323 21.75V18.75C17.0323 18.375 16.6452 18 16.2581 18H15.4839V22.5H16.2581ZM20.129 17.25C20.129 16.875 20.4677 16.5 20.9032 16.5H23.2258C23.6129 16.5 24 16.875 24 17.25C24 17.6719 23.6129 18 23.2258 18H21.6774V19.5H23.2258C23.6129 19.5 24 19.875 24 20.25C24 20.6719 23.6129 21 23.2258 21H21.6774V23.25C21.6774 23.6719 21.2903 24 20.9032 24C20.4677 24 20.129 23.6719 20.129 23.25V20.25V17.25Z" fill="#1B1B1B"/>
</g>
</svg>
