<svg width="24" height="24" viewBox="0 0 24 24" fill="none" xmlns="http://www.w3.org/2000/svg">
<g id="Size=Medium">
<path id="Vector" d="M11.25 4.875C11.25 5.2875 11.5875 5.625 12 5.625C12.4125 5.625 12.75 5.2875 12.75 4.875V0.75C12.75 0.3375 12.4125 0 12 0C11.5875 0 11.25 0.3375 11.25 0.75V4.875ZM12 9C12.7956 9 13.5587 9.31607 14.1213 9.87868C14.6839 10.4413 15 11.2044 15 12C15 12.7956 14.6839 13.5587 14.1213 14.1213C13.5587 14.6839 12.7956 15 12 15C11.2044 15 10.4413 14.6839 9.87868 14.1213C9.31607 13.5587 9 12.7956 9 12C9 11.2044 9.31607 10.4413 9.87868 9.87868C10.4413 9.31607 11.2044 9 12 9ZM12 16.5C13.1935 16.5 14.3381 16.0259 15.182 15.182C16.0259 14.3381 16.5 13.1935 16.5 12C16.5 10.8065 16.0259 9.66193 15.182 8.81802C14.3381 7.97411 13.1935 7.5 12 7.5C10.8065 7.5 9.66193 7.97411 8.81802 8.81802C7.97411 9.66193 7.5 10.8065 7.5 12C7.5 13.1935 7.97411 14.3381 8.81802 15.182C9.66193 16.0259 10.8065 16.5 12 16.5ZM12 24C12.4125 24 12.75 23.6625 12.75 23.25V19.5C12.75 19.0875 12.4125 18.75 12 18.75C11.5875 18.75 11.25 19.0875 11.25 19.5V23.25C11.25 23.6625 11.5875 24 12 24ZM0 12C0 12.4125 0.3375 12.75 0.75 12.75H4.5C4.9125 12.75 5.25 12.4125 5.25 12C5.25 11.5875 4.9125 11.25 4.5 11.25H0.75C0.3375 11.25 0 11.5875 0 12ZM19.125 11.25C18.7125 11.25 18.375 11.5875 18.375 12C18.375 12.4125 18.7125 12.75 19.125 12.75H23.25C23.6625 12.75 24 12.4125 24 12C24 11.5875 23.6625 11.25 23.25 11.25H19.125ZM3.51562 20.4844C3.80625 20.775 4.28437 20.775 4.575 20.4844L7.22812 17.8312C7.51875 17.5406 7.51875 17.0625 7.22812 16.7719C6.9375 16.4812 6.45938 16.4812 6.16875 16.7719L3.51562 19.425C3.225 19.7156 3.225 20.1938 3.51562 20.4844ZM16.5094 6.43125C16.2188 6.72187 16.2188 7.2 16.5094 7.49063C16.8 7.78125 17.2781 7.78125 17.5687 7.49063L20.4844 4.575C20.775 4.28437 20.775 3.80625 20.4844 3.51562C20.1938 3.225 19.7156 3.225 19.425 3.51562L16.5094 6.43125ZM3.51562 3.51562C3.225 3.80625 3.225 4.28437 3.51562 4.575L6.16875 7.22812C6.45938 7.51875 6.9375 7.51875 7.22812 7.22812C7.51875 6.9375 7.51875 6.45938 7.22812 6.16875L4.575 3.51562C4.28437 3.225 3.80625 3.225 3.51562 3.51562ZM17.5687 16.5094C17.2781 16.2188 16.8 16.2188 16.5094 16.5094C16.2188 16.8 16.2188 17.2781 16.5094 17.5687L19.425 20.4844C19.7156 20.775 20.1938 20.775 20.4844 20.4844C20.775 20.1938 20.775 19.7156 20.4844 19.425L17.5687 16.5094Z" fill="#1B1B1B"/>
</g>
</svg>
