<svg width="24" height="24" viewBox="0 0 24 24" fill="none" xmlns="http://www.w3.org/2000/svg">
<g id="Size=Medium" clip-path="url(#clip0_6529_30)">
<path id="Vector" d="M4.5 7.5H3V3C3 1.35938 4.3125 0 6 0H16.7344C17.5312 0 18.2812 0.328125 18.8438 0.890625L20.1094 2.15625C20.6719 2.71875 21 3.46875 21 4.26562V7.5H19.5V4.26562C19.5 3.84375 19.3125 3.46875 19.0312 3.1875L17.8125 1.96875C17.5312 1.6875 17.1562 1.5 16.7344 1.5H6C5.15625 1.5 4.5 2.20312 4.5 3V7.5ZM21 10.5H3C2.15625 10.5 1.5 11.2031 1.5 12V18H3V16.5C3 15.7031 3.65625 15 4.5 15H19.5C20.2969 15 21 15.7031 21 16.5V18H22.5V12C22.5 11.2031 21.7969 10.5 21 10.5ZM21 19.5V22.5C21 23.3438 20.2969 24 19.5 24H4.5C3.65625 24 3 23.3438 3 22.5V19.5H1.5C0.65625 19.5 0 18.8438 0 18V12C0 10.3594 1.3125 9 3 9H21C22.6406 9 24 10.3594 24 12V18C24 18.8438 23.2969 19.5 22.5 19.5H21ZM4.5 16.5V22.5H19.5V16.5H4.5ZM20.25 11.625C20.8594 11.625 21.375 12.1406 21.375 12.75C21.375 13.4062 20.8594 13.875 20.25 13.875C19.5938 13.875 19.125 13.4062 19.125 12.75C19.125 12.1406 19.5938 11.625 20.25 11.625Z" fill="#1B1B1B"/>
</g>
<defs>
<clipPath id="clip0_6529_30">
<rect width="24" height="24" fill="white"/>
</clipPath>
</defs>
</svg>
