<svg width="24" height="24" viewBox="0 0 24 24" fill="none" xmlns="http://www.w3.org/2000/svg">
<g id="Size=Medium">
<path id="Vector" d="M13.08 4.08C13.08 3.79357 12.9662 3.51886 12.7637 3.31632C12.5611 3.11379 12.2864 3 12 3C11.7136 3 11.4389 3.11379 11.2363 3.31632C11.0338 3.51886 10.92 3.79357 10.92 4.08C10.92 4.36643 11.0338 4.64114 11.2363 4.84368C11.4389 5.04621 11.7136 5.16 12 5.16C12.2864 5.16 12.5611 5.04621 12.7637 4.84368C12.9662 4.64114 13.08 4.36643 13.08 4.08ZM12 9.12C12.7638 9.12 13.4964 9.42343 14.0365 9.96353C14.5766 10.5036 14.88 11.2362 14.88 12C14.88 12.7638 14.5766 13.4964 14.0365 14.0365C13.4964 14.5766 12.7638 14.88 12 14.88C11.2362 14.88 10.5036 14.5766 9.96353 14.0365C9.42343 13.4964 9.12 12.7638 9.12 12C9.12 11.2362 9.42343 10.5036 9.96353 9.96353C10.5036 9.42343 11.2362 9.12 12 9.12ZM12 16.32C13.1457 16.32 14.2445 15.8649 15.0547 15.0547C15.8649 14.2445 16.32 13.1457 16.32 12C16.32 10.8543 15.8649 9.75546 15.0547 8.9453C14.2445 8.13514 13.1457 7.68 12 7.68C10.8543 7.68 9.75546 8.13514 8.9453 8.9453C8.13514 9.75546 7.68 10.8543 7.68 12C7.68 13.1457 8.13514 14.2445 8.9453 15.0547C9.75546 15.8649 10.8543 16.32 12 16.32ZM12 21C12.2864 21 12.5611 20.8862 12.7637 20.6837C12.9662 20.4811 13.08 20.2064 13.08 19.92C13.08 19.6336 12.9662 19.3589 12.7637 19.1563C12.5611 18.9538 12.2864 18.84 12 18.84C11.7136 18.84 11.4389 18.9538 11.2363 19.1563C11.0338 19.3589 10.92 19.6336 10.92 19.92C10.92 20.2064 11.0338 20.4811 11.2363 20.6837C11.4389 20.8862 11.7136 21 12 21ZM19.92 13.08C20.2064 13.08 20.4811 12.9662 20.6837 12.7637C20.8862 12.5611 21 12.2864 21 12C21 11.7136 20.8862 11.4389 20.6837 11.2363C20.4811 11.0338 20.2064 10.92 19.92 10.92C19.6336 10.92 19.3589 11.0338 19.1563 11.2363C18.9538 11.4389 18.84 11.7136 18.84 12C18.84 12.2864 18.9538 12.5611 19.1563 12.7637C19.3589 12.9662 19.6336 13.08 19.92 13.08ZM3 12C3 12.2864 3.11379 12.5611 3.31632 12.7637C3.51886 12.9662 3.79357 13.08 4.08 13.08C4.36643 13.08 4.64114 12.9662 4.84368 12.7637C5.04621 12.5611 5.16 12.2864 5.16 12C5.16 11.7136 5.04621 11.4389 4.84368 11.2363C4.64114 11.0338 4.36643 10.92 4.08 10.92C3.79357 10.92 3.51886 11.0338 3.31632 11.2363C3.11379 11.4389 3 11.7136 3 12ZM7.32 6.24C7.32 5.95357 7.20621 5.67886 7.00368 5.47632C6.80114 5.27379 6.52643 5.16 6.24 5.16C5.95357 5.16 5.67886 5.27379 5.47632 5.47632C5.27379 5.67886 5.16 5.95357 5.16 6.24C5.16 6.52643 5.27379 6.80114 5.47632 7.00368C5.67886 7.20621 5.95357 7.32 6.24 7.32C6.52643 7.32 6.80114 7.20621 7.00368 7.00368C7.20621 6.80114 7.32 6.52643 7.32 6.24ZM18.84 17.76C18.84 17.4736 18.7262 17.1989 18.5237 16.9963C18.3211 16.7938 18.0464 16.68 17.76 16.68C17.4736 16.68 17.1989 16.7938 16.9963 16.9963C16.7938 17.1989 16.68 17.4736 16.68 17.76C16.68 18.0464 16.7938 18.3211 16.9963 18.5237C17.1989 18.7262 17.4736 18.84 17.76 18.84C18.0464 18.84 18.3211 18.7262 18.5237 18.5237C18.7262 18.3211 18.84 18.0464 18.84 17.76ZM18.84 6.24C18.84 5.95357 18.7262 5.67886 18.5237 5.47632C18.3211 5.27379 18.0464 5.16 17.76 5.16C17.4736 5.16 17.1989 5.27379 16.9963 5.47632C16.7938 5.67886 16.68 5.95357 16.68 6.24C16.68 6.52643 16.7938 6.80114 16.9963 7.00368C17.1989 7.20621 17.4736 7.32 17.76 7.32C18.0464 7.32 18.3211 7.20621 18.5237 7.00368C18.7262 6.80114 18.84 6.52643 18.84 6.24ZM5.16 17.76C5.16 18.0464 5.27379 18.3211 5.47632 18.5237C5.67886 18.7262 5.95357 18.84 6.24 18.84C6.52643 18.84 6.80114 18.7262 7.00368 18.5237C7.20621 18.3211 7.32 18.0464 7.32 17.76C7.32 17.4736 7.20621 17.1989 7.00368 16.9963C6.80114 16.7938 6.52643 16.68 6.24 16.68C5.95357 16.68 5.67886 16.7938 5.47632 16.9963C5.27379 17.1989 5.16 17.4736 5.16 17.76Z" fill="#1B1B1B"/>
</g>
</svg>
