<svg width="24" height="24" viewBox="0 0 24 24" fill="none" xmlns="http://www.w3.org/2000/svg">
<g id="Size=Medium">
<path id="Vector" d="M11.2477 0.75C11.2477 0.3375 11.5851 0 11.9977 0C12.4102 0 12.7477 0.3375 12.7477 0.75V1.5375C16.5398 1.9125 19.4977 5.10938 19.4977 9V10.3641C19.4977 12.4125 20.3133 14.3766 21.7617 15.8297L21.893 15.9609C22.282 16.35 22.5023 16.8797 22.5023 17.4281C22.5023 18.5766 21.5742 19.5047 20.4258 19.5047H3.57421C2.42578 19.5 1.49765 18.5719 1.49765 17.4234C1.49765 16.875 1.71796 16.3453 2.10703 15.9562L2.23828 15.825C3.68203 14.3766 4.49765 12.4125 4.49765 10.3641V9C4.49765 5.10938 7.45546 1.9125 11.2477 1.5375V0.75ZM11.9977 3C8.68359 3 5.99765 5.68594 5.99765 9V10.3641C5.99765 12.8109 5.02734 15.1594 3.29296 16.8891L3.1664 17.0156C3.05859 17.1234 2.99765 17.2688 2.99765 17.4234C2.99765 17.7422 3.25546 18 3.57421 18H20.4211C20.7398 18 20.9977 17.7422 20.9977 17.4234C20.9977 17.2688 20.9367 17.1234 20.8289 17.0156L20.6977 16.8844C18.968 15.1547 17.993 12.8062 17.993 10.3594V9C17.993 5.68594 15.307 3 11.993 3H11.9977ZM10.582 21.5016C10.7883 22.0828 11.3461 22.5 11.9977 22.5C12.6492 22.5 13.207 22.0828 13.4133 21.5016C13.5492 21.1125 13.9805 20.9062 14.3695 21.0422C14.7586 21.1781 14.9648 21.6094 14.8289 21.9984C14.4164 23.1656 13.3055 24 11.9977 24C10.6898 24 9.5789 23.1656 9.1664 21.9984C9.03046 21.6094 9.23202 21.1781 9.62577 21.0422C10.0195 20.9062 10.4461 21.1078 10.582 21.5016Z" fill="#1B1B1B"/>
</g>
</svg>
