<svg width="24" height="24" viewBox="0 0 24 24" fill="none" xmlns="http://www.w3.org/2000/svg">
<g id="Size=Medium">
<path id="Vector" d="M19.5 9C19.5 4.875 16.125 1.5 12 1.5C7.82812 1.5 4.5 4.875 4.5 9C4.5 9.75 4.73438 10.7344 5.25 12C5.76562 13.2188 6.46875 14.5312 7.3125 15.8438C8.90625 18.4219 10.7812 20.9062 12 22.4062C13.1719 20.9062 15.0469 18.4219 16.6875 15.8438C17.4844 14.5312 18.1875 13.2188 18.7031 12C19.2188 10.7344 19.5 9.75 19.5 9ZM21 9C21 13.125 15.5156 20.3906 13.0781 23.4375C12.5156 24.1406 11.4375 24.1406 10.875 23.4375C8.48438 20.3906 3 13.125 3 9C3 4.03125 7.03125 0 12 0C16.9688 0 21 4.03125 21 9ZM9.75 9C9.75 9.84375 10.1719 10.5469 10.875 10.9688C11.5312 11.3906 12.4219 11.3906 13.125 10.9688C13.7812 10.5469 14.25 9.84375 14.25 9C14.25 8.20312 13.7812 7.5 13.125 7.07812C12.4219 6.65625 11.5312 6.65625 10.875 7.07812C10.1719 7.5 9.75 8.20312 9.75 9ZM12 12.75C10.6406 12.75 9.42188 12.0469 8.71875 10.875C8.0625 9.75 8.0625 8.29688 8.71875 7.125C9.42188 6 10.6406 5.25 12 5.25C13.3125 5.25 14.5312 6 15.2344 7.125C15.8906 8.29688 15.8906 9.75 15.2344 10.875C14.5312 12.0469 13.3125 12.75 12 12.75Z" fill="#1B1B1B"/>
</g>
</svg>
