<svg width="24" height="24" viewBox="0 0 24 24" fill="none" xmlns="http://www.w3.org/2000/svg">
<g id="Size=Medium">
<path id="Vector" d="M17.6 3.54911L11.6325 8.96429C11.5056 9.08036 11.3394 9.14286 11.1687 9.14286H7.45C6.86812 9.14286 6.4 9.62054 6.4 10.2143V13.7857C6.4 14.3795 6.86812 14.8571 7.45 14.8571H11.1687C11.3394 14.8571 11.5056 14.9196 11.6325 15.0357L17.6 20.4509V3.54911ZM16.83 2.33482C17.0706 2.12054 17.3769 2 17.6962 2C18.4181 2 19 2.59375 19 3.33036V20.6696C19 21.4063 18.4181 22 17.6962 22C17.3769 22 17.0706 21.8795 16.83 21.6652L10.9019 16.2857H7.45C6.09812 16.2857 5 15.1652 5 13.7857V10.2143C5 8.83482 6.09812 7.71429 7.45 7.71429H10.9019L16.83 2.33482Z" fill="#1B1B1B"/>
</g>
</svg>
