<svg width="24" height="24" viewBox="0 0 24 24" fill="none" xmlns="http://www.w3.org/2000/svg">
<g id="Size=Medium">
<path id="Vector" d="M6 1.5C5.15625 1.5 4.5 2.20312 4.5 3V21C4.5 21.8438 5.15625 22.5 6 22.5H9V19.5C9 17.8594 10.3125 16.5 12 16.5C13.6406 16.5 15 17.8594 15 19.5V22.5H18C18.7969 22.5 19.5 21.8438 19.5 21V3C19.5 2.20312 18.7969 1.5 18 1.5H6ZM13.5 19.5C13.5 18.7031 12.7969 18 12 18C11.1562 18 10.5 18.7031 10.5 19.5V22.5H13.5V19.5ZM9 24H6C4.3125 24 3 22.6875 3 21V3C3 1.35938 4.3125 0 6 0H18C19.6406 0 21 1.35938 21 3V21C21 22.6875 19.6406 24 18 24H15H13.5H10.5H9ZM6 5.625C6 5.01562 6.46875 4.5 7.125 4.5H9.375C9.98438 4.5 10.5 5.01562 10.5 5.625V7.875C10.5 8.53125 9.98438 9 9.375 9H7.125C6.46875 9 6 8.53125 6 7.875V5.625ZM7.5 6V7.5H9V6H7.5ZM14.625 4.5H16.875C17.4844 4.5 18 5.01562 18 5.625V7.875C18 8.53125 17.4844 9 16.875 9H14.625C13.9688 9 13.5 8.53125 13.5 7.875V5.625C13.5 5.01562 13.9688 4.5 14.625 4.5ZM15 7.5H16.5V6H15V7.5ZM6 11.625C6 11.0156 6.46875 10.5 7.125 10.5H9.375C9.98438 10.5 10.5 11.0156 10.5 11.625V13.875C10.5 14.5312 9.98438 15 9.375 15H7.125C6.46875 15 6 14.5312 6 13.875V11.625ZM7.5 12V13.5H9V12H7.5ZM14.625 10.5H16.875C17.4844 10.5 18 11.0156 18 11.625V13.875C18 14.5312 17.4844 15 16.875 15H14.625C13.9688 15 13.5 14.5312 13.5 13.875V11.625C13.5 11.0156 13.9688 10.5 14.625 10.5ZM15 13.5H16.5V12H15V13.5Z" fill="#1B1B1B"/>
</g>
</svg>
