<svg width="24" height="24" viewBox="0 0 24 24" fill="none" xmlns="http://www.w3.org/2000/svg">
<g id="Size=Medium" clip-path="url(#clip0_6785_72)">
<path id="Vector" d="M12.0234 22.5C12.7734 22.5 13.8984 21.8438 14.8828 19.8281C15.3516 18.8906 15.7734 17.7656 16.0547 16.5H7.99219C8.22656 17.7656 8.64844 18.8906 9.11719 19.8281C10.1016 21.8438 11.2266 22.5 12.0234 22.5ZM7.71094 15H16.2891C16.4297 14.0625 16.5234 13.0781 16.5234 12C16.5234 10.9688 16.4297 9.98438 16.2891 9H7.71094C7.57031 9.98438 7.52344 10.9688 7.52344 12C7.52344 13.0781 7.57031 14.0625 7.71094 15ZM7.99219 7.5H16.0547C15.7734 6.23438 15.3516 5.15625 14.8828 4.21875C13.8984 2.20312 12.7734 1.5 12.0234 1.5C11.2266 1.5 10.1016 2.20312 9.11719 4.21875C8.64844 5.15625 8.22656 6.23438 7.99219 7.5ZM17.8359 9C17.9297 9.98438 18.0234 10.9688 18.0234 12C18.0234 13.0781 17.9297 14.0625 17.8359 15H22.0547C22.3359 14.0625 22.5234 13.0781 22.5234 12C22.5234 10.9688 22.3359 9.98438 22.0547 9H17.8359ZM21.4922 7.5C20.2734 4.96875 18.0703 3 15.3516 2.0625C16.3359 3.375 17.1328 5.29688 17.5547 7.5H21.4922ZM6.44531 7.5C6.91406 5.29688 7.66406 3.375 8.64844 2.0625C5.92969 3 3.72656 4.96875 2.50781 7.5H6.44531ZM1.94531 9C1.66406 9.98438 1.52344 10.9688 1.52344 12C1.52344 13.0781 1.66406 14.0625 1.94531 15H6.21094C6.07031 14.0625 6.02344 13.0781 6.02344 12C6.02344 10.9688 6.07031 9.98438 6.21094 9H1.94531ZM15.3516 21.9844C18.0703 21.0469 20.2734 19.0781 21.4922 16.5H17.5547C17.1328 18.75 16.3359 20.625 15.3516 21.9844ZM8.64844 21.9844C7.66406 20.625 6.91406 18.75 6.44531 16.5H2.50781C3.72656 19.0781 5.92969 21.0469 8.64844 21.9844ZM12.0234 24C7.71094 24 3.77344 21.75 1.61719 18C-0.539062 14.2969 -0.539062 9.75 1.61719 6C3.77344 2.29688 7.71094 0 12.0234 0C16.2891 0 20.2266 2.29688 22.3828 6C24.5391 9.75 24.5391 14.2969 22.3828 18C20.2266 21.75 16.2891 24 12.0234 24Z" fill="#1B1B1B"/>
</g>
<defs>
<clipPath id="clip0_6785_72">
<rect width="24" height="24" fill="white"/>
</clipPath>
</defs>
</svg>
