<svg width="24" height="24" viewBox="0 0 24 24" fill="none" xmlns="http://www.w3.org/2000/svg">
<g id="Size=Medium">
<path id="Vector" d="M15 4.5V12C15 13.6547 13.6547 15 12 15C10.3453 15 9 13.6547 9 12V4.5C9 2.84531 10.3453 1.5 12 1.5C13.6547 1.5 15 2.84531 15 4.5ZM7.5 4.5V12C7.5 14.4844 9.51562 16.5 12 16.5C14.4844 16.5 16.5 14.4844 16.5 12V4.5C16.5 2.01562 14.4844 0 12 0C9.51562 0 7.5 2.01562 7.5 4.5ZM6 9.75C6 9.3375 5.6625 9 5.25 9C4.8375 9 4.5 9.3375 4.5 9.75V12C4.5 15.8906 7.45781 19.0875 11.25 19.4625V22.5H8.25C7.8375 22.5 7.5 22.8375 7.5 23.25C7.5 23.6625 7.8375 24 8.25 24H12H15.75C16.1625 24 16.5 23.6625 16.5 23.25C16.5 22.8375 16.1625 22.5 15.75 22.5H12.75V19.4625C16.5422 19.0875 19.5 15.8906 19.5 12V9.75C19.5 9.3375 19.1625 9 18.75 9C18.3375 9 18 9.3375 18 9.75V12C18 15.3141 15.3141 18 12 18C8.68594 18 6 15.3141 6 12V9.75Z" fill="#1B1B1B"/>
</g>
</svg>
