<svg width="24" height="24" viewBox="0 0 24 24" fill="none" xmlns="http://www.w3.org/2000/svg">
<g id="Size=Medium">
<path id="Vector" d="M12 18.4615C11.2656 18.4615 10.5612 18.7533 10.0419 19.2726C9.52253 19.792 9.23077 20.4963 9.23077 21.2308C9.23077 21.9652 9.52253 22.6696 10.0419 23.1889C10.5612 23.7082 11.2656 24 12 24C12.7345 24 13.4388 23.7082 13.9581 23.1889C14.4775 22.6696 14.7692 21.9652 14.7692 21.2308C14.7692 20.4963 14.4775 19.792 13.9581 19.2726C13.4388 18.7533 12.7345 18.4615 12 18.4615ZM12 9.23077C11.2656 9.23077 10.5612 9.52253 10.0419 10.0419C9.52253 10.5612 9.23077 11.2656 9.23077 12C9.23077 12.7344 9.52253 13.4388 10.0419 13.9581C10.5612 14.4775 11.2656 14.7692 12 14.7692C12.7345 14.7692 13.4388 14.4775 13.9581 13.9581C14.4775 13.4388 14.7692 12.7344 14.7692 12C14.7692 11.2656 14.4775 10.5612 13.9581 10.0419C13.4388 9.52253 12.7345 9.23077 12 9.23077ZM14.7692 2.76923C14.7692 2.40557 14.6976 2.04547 14.5584 1.70949C14.4193 1.37351 14.2153 1.06824 13.9581 0.811089C13.701 0.553942 13.3957 0.349962 13.0597 0.210795C12.7238 0.0716282 12.3637 0 12 0C11.6363 0 11.2762 0.0716282 10.9403 0.210795C10.6043 0.349962 10.299 0.553942 10.0419 0.811089C9.78472 1.06824 9.58074 1.37351 9.44157 1.70949C9.3024 2.04547 9.23077 2.40557 9.23077 2.76923C9.23077 3.13289 9.3024 3.49299 9.44157 3.82897C9.58074 4.16495 9.78472 4.47023 10.0419 4.72737C10.299 4.98452 10.6043 5.1885 10.9403 5.32767C11.2762 5.46683 11.6363 5.53846 12 5.53846C12.3637 5.53846 12.7238 5.46683 13.0597 5.32767C13.3957 5.1885 13.701 4.98452 13.9581 4.72737C14.2153 4.47023 14.4193 4.16495 14.5584 3.82897C14.6976 3.49299 14.7692 3.13289 14.7692 2.76923Z" fill="#1B1B1B"/>
</g>
</svg>
