<svg width="24" height="24" viewBox="0 0 24 24" fill="none" xmlns="http://www.w3.org/2000/svg">
<g id="Size=Medium">
<path id="Vector" d="M12.0007 3.00052C5.89792 3.00052 1.5013 6.96592 1.5013 11.25C1.5013 12.989 2.22782 14.5592 3.37619 15.9373C3.61993 16.2326 3.76992 16.631 3.72305 17.0575C3.57775 18.3231 3.18871 19.5183 2.51843 20.6339C2.495 20.6761 2.46687 20.7182 2.44344 20.7557C2.96372 20.6198 3.484 20.4276 3.97616 20.2167C4.77299 19.8699 5.52294 19.4339 6.24478 18.9324C6.64319 18.6559 7.1541 18.5809 7.61345 18.7355C9.04774 19.223 10.5008 19.4996 12.0007 19.4996C18.1035 19.4996 22.5001 15.5342 22.5001 11.25C22.5001 6.96592 18.1035 3.00052 12.0007 3.00052ZM0.00139 11.25C0.00139 5.86911 5.36827 1.50061 12.0007 1.50061C18.6331 1.50061 24 5.86911 24 11.25C24 16.631 18.6331 20.9995 12.0007 20.9995C10.3133 20.9995 8.6962 20.6854 7.13535 20.1605C7.12598 20.1558 7.11192 20.1605 7.10254 20.1652C6.3104 20.7136 5.47607 21.201 4.57612 21.5948C3.45119 22.0822 2.09658 22.4994 0.751347 22.4994C0.446677 22.4994 0.174817 22.3166 0.0576367 22.04C-0.059544 21.7635 0.00607722 21.4401 0.217002 21.2245C0.596668 20.8401 0.929461 20.3714 1.23413 19.8652C1.78254 18.9465 2.11064 17.9622 2.23251 16.9075C2.23251 16.9075 2.22782 16.9028 2.22782 16.8982C0.920087 15.3326 0.00139 13.4343 0.00139 11.25Z" fill="#1B1B1B"/>
</g>
</svg>
