<svg width="24" height="24" viewBox="0 0 24 24" fill="none" xmlns="http://www.w3.org/2000/svg">
<g id="Size=Medium">
<path id="Vector" d="M2.57143 1.71429C2.1 1.71429 1.71429 2.1 1.71429 2.57143V7.71429C1.71429 8.18571 2.1 8.57143 2.57143 8.57143H7.71429C8.18571 8.57143 8.57143 8.18571 8.57143 7.71429V2.57143C8.57143 2.1 8.18571 1.71429 7.71429 1.71429H2.57143ZM0 2.57143C0 1.15179 1.15179 0 2.57143 0H7.71429C9.13393 0 10.2857 1.15179 10.2857 2.57143V7.71429C10.2857 9.13393 9.13393 10.2857 7.71429 10.2857H2.57143C1.15179 10.2857 0 9.13393 0 7.71429V2.57143ZM2.57143 15.4286C2.1 15.4286 1.71429 15.8143 1.71429 16.2857V21.4286C1.71429 21.9 2.1 22.2857 2.57143 22.2857H7.71429C8.18571 22.2857 8.57143 21.9 8.57143 21.4286V16.2857C8.57143 15.8143 8.18571 15.4286 7.71429 15.4286H2.57143ZM0 16.2857C0 14.8661 1.15179 13.7143 2.57143 13.7143H7.71429C9.13393 13.7143 10.2857 14.8661 10.2857 16.2857V21.4286C10.2857 22.8482 9.13393 24 7.71429 24H2.57143C1.15179 24 0 22.8482 0 21.4286V16.2857ZM21.4286 1.71429H16.2857C15.8143 1.71429 15.4286 2.1 15.4286 2.57143V7.71429C15.4286 8.18571 15.8143 8.57143 16.2857 8.57143H21.4286C21.9 8.57143 22.2857 8.18571 22.2857 7.71429V2.57143C22.2857 2.1 21.9 1.71429 21.4286 1.71429ZM16.2857 0H21.4286C22.8482 0 24 1.15179 24 2.57143V7.71429C24 9.13393 22.8482 10.2857 21.4286 10.2857H16.2857C14.8661 10.2857 13.7143 9.13393 13.7143 7.71429V2.57143C13.7143 1.15179 14.8661 0 16.2857 0ZM16.2857 15.4286C15.8143 15.4286 15.4286 15.8143 15.4286 16.2857V21.4286C15.4286 21.9 15.8143 22.2857 16.2857 22.2857H21.4286C21.9 22.2857 22.2857 21.9 22.2857 21.4286V16.2857C22.2857 15.8143 21.9 15.4286 21.4286 15.4286H16.2857ZM13.7143 16.2857C13.7143 14.8661 14.8661 13.7143 16.2857 13.7143H21.4286C22.8482 13.7143 24 14.8661 24 16.2857V21.4286C24 22.8482 22.8482 24 21.4286 24H16.2857C14.8661 24 13.7143 22.8482 13.7143 21.4286V16.2857Z" fill="#1B1B1B"/>
</g>
</svg>
