<svg width="24" height="24" viewBox="0 0 24 24" fill="none" xmlns="http://www.w3.org/2000/svg">
<g id="Size=Medium">
<path id="Vector" fill-rule="evenodd" clip-rule="evenodd" d="M12.7559 1C10.7266 1 9.07087 2.65572 9.07087 4.68504C9.07087 4.97823 9.10782 5.2626 9.17349 5.53543H1.66929C0.753356 5.53543 0 6.28879 0 7.20472V16.2756C0 17.1915 0.753356 17.9449 1.66929 17.9449H7.09617C7.42539 20.7768 9.83702 22.9843 12.7559 22.9843C15.3391 22.9843 17.4279 21.2233 18.1229 18.8721C18.6918 19.2148 19.3373 19.4567 20.063 19.4567C22.2314 19.4567 24 17.6881 24 15.5197V9.72441C24 9.54898 23.9303 9.38076 23.8063 9.25673C23.6822 9.1327 23.514 9.06301 23.3386 9.06299H12.4094V8.35214C12.523 8.36352 12.6384 8.37008 12.7559 8.37008C14.7852 8.37008 16.4409 6.71436 16.4409 4.68504C16.4409 2.65572 14.7852 1 12.7559 1ZM10.3937 4.68504C10.3937 3.37426 11.4451 2.32283 12.7559 2.32283C14.0667 2.32283 15.1181 3.37426 15.1181 4.68504C15.1181 5.99582 14.0667 7.04724 12.7559 7.04724C12.6334 7.04724 12.5131 7.03549 12.3937 7.01585C12.2986 6.18868 11.5927 5.53543 10.7402 5.53543H10.554C10.4513 5.27184 10.3937 4.98661 10.3937 4.68504ZM20.315 3.01575C19.4743 3.01575 18.7681 3.35072 18.3085 3.86782C17.8514 4.38202 17.6378 5.0434 17.6378 5.69291C17.6378 6.34242 17.8514 7.00381 18.3085 7.51801C18.7681 8.03511 19.4743 8.37008 20.315 8.37008C21.1556 8.37008 21.8618 8.03511 22.3214 7.51801C22.7785 7.00381 22.9921 6.34242 22.9921 5.69291C22.9921 5.0434 22.7785 4.38202 22.3214 3.86782C21.8618 3.35072 21.1556 3.01575 20.315 3.01575ZM19.2978 4.74636C19.51 4.50761 19.8117 4.33858 20.315 4.33858C20.8182 4.33858 21.1199 4.50761 21.3321 4.74636C21.5469 4.988 21.6693 5.33446 21.6693 5.69291C21.6693 6.05136 21.5469 6.39782 21.3321 6.63947C21.1199 6.87822 20.8182 7.04724 20.315 7.04724C19.8117 7.04724 19.51 6.87822 19.2978 6.63947C19.083 6.39782 18.9606 6.05136 18.9606 5.69291C18.9606 5.33446 19.083 4.988 19.2978 4.74636ZM1.32283 7.20472C1.32283 7.00696 1.47153 6.85827 1.66929 6.85827H10.7402C10.9379 6.85827 11.0866 7.00696 11.0866 7.20472V7.36804C11.0603 7.47342 11.0603 7.58367 11.0866 7.68904V9.62772C11.0776 9.69022 11.0776 9.75368 11.0866 9.81618V16.2756C11.0866 16.4734 10.9379 16.622 10.7402 16.622H7.81323C7.75073 16.6131 7.68726 16.6131 7.62477 16.622H1.66929C1.47153 16.622 1.32283 16.4734 1.32283 16.2756V7.20472ZM8.88189 8.55906H3.52756V9.88189H5.54331V14.9213H6.86614V9.88189H8.88189V8.55906ZM12.4094 16.2756V10.3858H17.1339V17.2835C17.1339 19.7074 15.1798 21.6614 12.7559 21.6614C10.5572 21.6614 8.7468 20.0528 8.42929 17.9449H10.7402C11.6561 17.9449 12.4094 17.1915 12.4094 16.2756ZM18.4567 17.2835V10.3858H22.6772V15.5197C22.6772 16.9695 21.5128 18.1339 20.063 18.1339C19.4302 18.1339 18.8632 17.8982 18.4099 17.5208C18.4123 17.5122 18.415 17.503 18.418 17.4928C18.4194 17.488 18.4209 17.483 18.4224 17.4777L18.4224 17.4777C18.4365 17.4302 18.4567 17.3617 18.4567 17.2835Z" fill="#1B1B1B"/>
</g>
</svg>
