<svg width="24" height="24" viewBox="0 0 24 24" fill="none" xmlns="http://www.w3.org/2000/svg">
<g id="Size=Medium" clip-path="url(#clip0_6567_931)">
<path id="Vector" d="M21.4594 2.17263C20.8922 1.55816 19.8996 1.55816 19.3323 2.17263L18.0561 3.40158L20.7976 6.14309L22.0266 4.86687C22.6411 4.29966 22.6411 3.30705 22.0266 2.73984L21.4594 2.17263ZM8.93353 12.5714C8.69719 12.7605 8.55539 13.0441 8.50812 13.2805L7.79911 16.4001L10.9188 15.6911C11.1551 15.6438 11.4387 15.502 11.6278 15.2657L19.7105 7.18297L17.0162 4.48873L8.93353 12.5714ZM18.2452 1.08548C19.4269 -0.0962022 21.3648 -0.0962022 22.5465 1.08548L23.1137 1.65269C24.2954 2.83437 24.2954 4.77234 23.1137 5.95402L12.7149 16.3528C12.2895 16.7782 11.7696 17.0618 11.2496 17.1564L6.9483 18.149C6.71196 18.1963 6.42836 18.149 6.23929 17.9599C6.05022 17.7709 6.00295 17.4873 6.05022 17.2509L7.04284 12.9496C7.18464 12.4296 7.42098 11.9097 7.84638 11.4843L18.2452 1.08548ZM3.78139 3.02344H9.83161C10.2097 3.02344 10.5879 3.40158 10.5879 3.77972C10.5879 4.20513 10.2097 4.536 9.83161 4.536H3.78139C2.50517 4.536 1.51256 5.57588 1.51256 6.80483V20.4178C1.51256 21.694 2.50517 22.6867 3.78139 22.6867H17.3944C18.6233 22.6867 19.6632 21.694 19.6632 20.4178V14.3676C19.6632 13.9895 19.9941 13.6113 20.4195 13.6113C20.7976 13.6113 21.1758 13.9895 21.1758 14.3676V20.4178C21.1758 22.5449 19.4742 24.1992 17.3944 24.1992H3.78139C1.65436 24.1992 0 22.5449 0 20.4178V6.80483C0 4.72507 1.65436 3.02344 3.78139 3.02344Z" fill="#1B1B1B"/>
</g>
<defs>
<clipPath id="clip0_6567_931">
<rect width="24" height="24" fill="white"/>
</clipPath>
</defs>
</svg>
