<svg width="24" height="24" viewBox="0 0 24 24" fill="none" xmlns="http://www.w3.org/2000/svg">
<g id="Size=Medium">
<path id="Vector" d="M5.51687 7.44643C7.15236 5.92857 9.32669 4.71429 11.9981 4.71429C14.6695 4.71429 16.8439 5.92857 18.4794 7.44643C20.1149 8.96429 21.2077 10.7857 21.7124 12C21.2077 13.2143 20.1149 15.0357 18.4794 16.5536C16.8439 18.0714 14.6695 19.2857 11.9981 19.2857C9.32669 19.2857 7.15236 18.0714 5.51687 16.5536C3.88138 15.0357 2.78852 13.2143 2.28383 12C2.78852 10.7857 3.88138 8.96429 5.51687 7.44643ZM11.9981 3.5C8.93205 3.5 6.47691 4.89643 4.68964 6.55848C2.91374 8.20536 1.72602 10.1786 1.16441 11.5333C1.03919 11.833 1.03919 12.167 1.16441 12.4667C1.72602 13.8214 2.91374 15.7946 4.68964 17.4415C6.47691 19.1036 8.93205 20.5 11.9981 20.5C15.0642 20.5 17.5193 19.1036 19.3066 17.4415C21.0825 15.7908 22.2702 13.8214 22.8356 12.4667C22.9608 12.167 22.9608 11.833 22.8356 11.5333C22.2702 10.1786 21.0825 8.20536 19.3066 6.55848C17.5193 4.89643 15.0642 3.5 11.9981 3.5ZM8.35526 12C8.35526 11.0339 8.73906 10.1073 9.42223 9.42411C10.1054 8.74094 11.032 8.35714 11.9981 8.35714C12.9643 8.35714 13.8908 8.74094 14.574 9.42411C15.2572 10.1073 15.641 11.0339 15.641 12C15.641 12.9661 15.2572 13.8927 14.574 14.5759C13.8908 15.2591 12.9643 15.6429 11.9981 15.6429C11.032 15.6429 10.1054 15.2591 9.42223 14.5759C8.73906 13.8927 8.35526 12.9661 8.35526 12ZM16.8553 12C16.8553 10.7118 16.3435 9.47637 15.4326 8.56548C14.5217 7.65459 13.2863 7.14286 11.9981 7.14286C10.7099 7.14286 9.47449 7.65459 8.5636 8.56548C7.65271 9.47637 7.14098 10.7118 7.14098 12C7.14098 13.2882 7.65271 14.5236 8.5636 15.4345C9.47449 16.3454 10.7099 16.8571 11.9981 16.8571C13.2863 16.8571 14.5217 16.3454 15.4326 15.4345C16.3435 14.5236 16.8553 13.2882 16.8553 12Z" fill="#1B1B1B"/>
</g>
</svg>
