<svg width="24" height="24" viewBox="0 0 24 24" fill="none" xmlns="http://www.w3.org/2000/svg">
<g id="Size=Medium">
<path id="Vector" d="M3.6 5C3.6 5.675 3.9375 6.2375 4.5 6.575C5.025 6.9125 5.7375 6.9125 6.3 6.575C6.825 6.2375 7.2 5.675 7.2 5C7.2 4.3625 6.825 3.8 6.3 3.4625C5.7375 3.125 5.025 3.125 4.5 3.4625C3.9375 3.8 3.6 4.3625 3.6 5ZM8.4 5C8.4 6.0875 7.8 7.0625 6.9 7.625C5.9625 8.15 4.8 8.15 3.9 7.625C2.9625 7.0625 2.4 6.0875 2.4 5C2.4 3.95 2.9625 2.975 3.9 2.4125C4.8 1.8875 5.9625 1.8875 6.9 2.4125C7.8 2.975 8.4 3.95 8.4 5ZM12 8C11.1375 8 10.35 8.4875 9.9 9.2C9.4875 9.95 9.4875 10.8875 9.9 11.6C10.35 12.35 11.1375 12.8 12 12.8C12.825 12.8 13.6125 12.35 14.0625 11.6C14.475 10.8875 14.475 9.95 14.0625 9.2C13.6125 8.4875 12.825 8 12 8ZM12 14C10.6875 14 9.525 13.325 8.85 12.2C8.2125 11.1125 8.2125 9.725 8.85 8.6C9.525 7.5125 10.6875 6.8 12 6.8C13.275 6.8 14.4375 7.5125 15.1125 8.6C15.75 9.725 15.75 11.1125 15.1125 12.2C14.4375 13.325 13.275 14 12 14ZM9.7875 16.4C7.7625 16.4 6.075 18.0125 6 20H17.9625C17.8875 18.0125 16.2 16.4 14.175 16.4H9.7875ZM9.7875 15.2H14.175C16.95 15.2 19.2 17.45 19.2 20.225C19.2 20.7875 18.75 21.2 18.1875 21.2H5.775C5.2125 21.2 4.8 20.75 4.8 20.225C4.8 17.45 7.0125 15.2 9.7875 15.2ZM19.2 3.2C18.525 3.2 17.9625 3.575 17.625 4.1C17.2875 4.6625 17.2875 5.375 17.625 5.9C17.9625 6.4625 18.525 6.8 19.2 6.8C19.8375 6.8 20.4 6.4625 20.7375 5.9C21.075 5.375 21.075 4.6625 20.7375 4.1C20.4 3.575 19.8375 3.2 19.2 3.2ZM19.2 8C18.1125 8 17.1375 7.4375 16.575 6.5C16.05 5.6 16.05 4.4375 16.575 3.5C17.1375 2.6 18.1125 2 19.2 2C20.25 2 21.225 2.6 21.7875 3.5C22.3125 4.4375 22.3125 5.6 21.7875 6.5C21.225 7.4375 20.25 8 19.2 8ZM19.8 10.4H16.8C16.8 9.9875 16.725 9.6125 16.65 9.2H19.8C22.0875 9.2 24 11.1125 24 13.4C24 13.7375 23.7 14 23.4 14C23.0625 14 22.8 13.7375 22.8 13.4C22.8 11.75 21.45 10.4 19.8 10.4ZM7.2 10.4H4.2C2.5125 10.4 1.2 11.75 1.2 13.4C1.2 13.7375 0.9 14 0.6 14C0.2625 14 0 13.7375 0 13.4C0 11.1125 1.875 9.2 4.2 9.2H7.35C7.2375 9.6125 7.2 9.9875 7.2 10.4Z" fill="#1B1B1B"/>
</g>
</svg>
