<svg width="24" height="24" viewBox="0 0 24 24" fill="none" xmlns="http://www.w3.org/2000/svg">
<g id="Size=Medium">
<path id="Vector" d="M11.4375 5.87132L10.875 5.23851L10.6781 5.01819C9.45938 3.64944 7.61719 3.01194 5.8125 3.34007C3.31406 3.79476 1.5 5.96976 1.5 8.51038V8.67444C1.5 10.1885 2.12812 11.6323 3.23906 12.6635L11.8594 20.6932C11.8969 20.726 11.9484 20.7494 12 20.7494C12.0516 20.7494 12.1031 20.7307 12.1406 20.6932L20.7656 12.6635C21.8719 11.6323 22.5 10.1885 22.5 8.67444V8.51038C22.5 5.96976 20.6859 3.79476 18.1875 3.34007C16.3828 3.01194 14.5406 3.64944 13.3219 5.01819L13.125 5.23851L12.5625 5.87132C12.4219 6.03069 12.2156 6.12444 12 6.12444C11.7844 6.12444 11.5828 6.03069 11.4375 5.87132ZM13.0734 3.19476C14.5781 2.01819 16.5328 1.51663 18.4547 1.86351C21.6656 2.44944 24 5.24788 24 8.51038V8.67444C24 10.3619 23.3859 11.9838 22.2844 13.2448C22.125 13.4229 21.9609 13.5963 21.7828 13.7604L13.1578 21.7901C13.1203 21.8276 13.0781 21.8604 13.0359 21.8932C12.7406 22.1229 12.375 22.2448 12 22.2448C11.5688 22.2448 11.1562 22.0807 10.8375 21.7901L2.2125 13.7651C2.03437 13.601 1.87031 13.4276 1.71094 13.2494C0.614063 11.9838 0 10.3619 0 8.67444V8.51038C0 5.24788 2.33438 2.44944 5.54531 1.86351C7.4625 1.51663 9.41719 2.01351 10.9219 3.19476C11.2359 3.44319 11.5312 3.71507 11.7984 4.01976L11.9953 4.24007L12.1922 4.01976C12.3891 3.79944 12.5953 3.59319 12.8156 3.40569C12.9 3.33538 12.9844 3.26507 13.0687 3.19476H13.0734Z" fill="#1B1B1B"/>
</g>
</svg>
