<svg width="24" height="24" viewBox="0 0 24 24" fill="none" xmlns="http://www.w3.org/2000/svg">
<g id="Size=Medium">
<path id="Vector" d="M13.5 4.33912L13.3125 5.136C12.7969 7.011 11.5781 8.65162 9.9375 9.68287L9.79688 9.77662C9.42188 10.011 9.09375 10.3391 8.8125 10.7141C8.57812 11.0422 8.10938 11.136 7.78125 10.9016C7.45312 10.6204 7.35938 10.1516 7.59375 9.8235C7.96875 9.30787 8.4375 8.886 9 8.511L9.14062 8.41725C10.4531 7.5735 11.4375 6.261 11.8594 4.71412L12.0469 3.96412C12.4688 2.55787 13.875 1.71412 15.2812 2.08912C16.6875 2.511 17.5312 3.91725 17.1562 5.3235L16.9219 6.12037C16.7344 6.77662 16.5 7.386 16.2188 7.99537H21C22.6406 7.99537 24 9.35475 24 10.9954C24 11.8391 23.625 12.5891 23.1094 13.1516C23.2031 13.4329 23.25 13.7141 23.25 13.9954C23.25 14.886 22.8281 15.6829 22.2656 16.2454C22.4062 16.5735 22.5 16.9954 22.5 17.3704C22.5 18.4954 21.8906 19.4797 21 19.9954C21 21.6829 19.6406 22.9954 18 22.9954H13.7812C12.75 22.9954 11.7188 22.7141 10.875 22.1516L9.04688 20.9329C8.48438 20.511 7.96875 20.0422 7.59375 19.4329C7.35938 19.1047 7.45312 18.636 7.82812 18.4016C8.15625 18.1672 8.625 18.261 8.85938 18.636C9.14062 19.0579 9.46875 19.386 9.89062 19.6672L11.7188 20.886C12.3281 21.3079 13.0312 21.4954 13.7812 21.4954H18C18.7969 21.4954 19.5 20.8391 19.5 19.9954C19.5 19.9016 19.4531 19.8079 19.4531 19.7141C19.3594 19.3391 19.5938 18.9172 19.9688 18.8235C20.5312 18.636 21 18.0735 21 17.4172C21 17.0422 20.8594 16.7141 20.6719 16.4797C20.5312 16.2922 20.4844 16.1047 20.5312 15.8704C20.5781 15.636 20.7188 15.4485 20.9062 15.3547C21.4219 15.1204 21.75 14.6047 21.75 14.0422C21.75 13.761 21.6562 13.4797 21.5156 13.2922C21.3281 12.9172 21.4688 12.4954 21.7969 12.3079C22.2188 12.0266 22.5 11.5579 22.5 11.0422C22.5 10.1985 21.7969 9.54225 21 9.54225H14.9531C14.6719 9.54225 14.4375 9.35475 14.2969 9.12037C14.1562 8.886 14.1562 8.60475 14.2969 8.37037C14.8125 7.5735 15.2344 6.636 15.4688 5.6985L15.7031 4.9485C15.8438 4.33912 15.5156 3.72975 14.9062 3.54225C14.2969 3.40162 13.6875 3.72975 13.5 4.33912ZM1.5 10.9954V21.4954H4.5V10.9954H1.5ZM0 10.9954C0 10.1985 0.65625 9.49537 1.5 9.49537H4.5C5.29688 9.49537 6 10.1985 6 10.9954V21.4954C6 22.3391 5.29688 22.9954 4.5 22.9954H1.5C0.65625 22.9954 0 22.3391 0 21.4954V10.9954Z" fill="#1B1B1B"/>
</g>
</svg>
