<svg width="24" height="24" viewBox="0 0 24 24" fill="none" xmlns="http://www.w3.org/2000/svg">
<g id="Size=Medium">
<path id="Vector" d="M12.7059 3.64856L6.68824 9.00003C6.56029 9.11473 6.39265 9.1765 6.22059 9.1765H2.47059C1.88382 9.1765 1.41176 9.64856 1.41176 10.2353V13.7647C1.41176 14.3515 1.88382 14.8236 2.47059 14.8236H6.22059C6.39265 14.8236 6.56029 14.8853 6.68824 15L12.7059 20.3515V3.64856ZM11.9294 2.44856C12.1721 2.23679 12.4809 2.11768 12.8029 2.11768C13.5309 2.11768 14.1176 2.70444 14.1176 3.43238V20.5677C14.1176 21.2956 13.5309 21.8824 12.8029 21.8824C12.4809 21.8824 12.1721 21.7633 11.9294 21.5515L5.95147 16.2353H2.47059C1.10735 16.2353 0 15.128 0 13.7647V10.2353C0 8.87209 1.10735 7.76473 2.47059 7.76473H5.95147L11.9294 2.44856ZM17.0824 8.75297C17.3162 8.43973 17.7574 8.37797 18.0706 8.61179C19.0985 9.38385 19.7647 10.6147 19.7647 12C19.7647 13.3853 19.0985 14.6162 18.0706 15.3883C17.7574 15.6221 17.3162 15.5603 17.0824 15.2471C16.8485 14.9339 16.9103 14.4927 17.2235 14.2589C17.9118 13.7427 18.3529 12.9221 18.3529 12C18.3529 11.078 17.9118 10.2574 17.2235 9.74121C16.9103 9.50738 16.8485 9.06621 17.0824 8.75297ZM20.9206 5.46621C22.8 7.01915 24 9.37062 24 12C24 14.6294 22.8 16.9809 20.9206 18.5339C20.6206 18.7809 20.175 18.7412 19.9279 18.4412C19.6809 18.1412 19.7206 17.6956 20.0206 17.4486C21.5912 16.1515 22.5882 14.1927 22.5882 12C22.5882 9.80738 21.5912 7.84856 20.0206 6.55591C19.7206 6.30885 19.6765 5.86326 19.9279 5.56326C20.1794 5.26326 20.6206 5.21915 20.9206 5.47062V5.46621Z" fill="#1B1B1B"/>
</g>
</svg>
