<svg width="24" height="24" viewBox="0 0 24 24" fill="none" xmlns="http://www.w3.org/2000/svg">
<g id="Size=Medium" clip-path="url(#clip0_6784_18)">
<path id="Vector" d="M19.3359 19.5469C21.3047 17.625 22.5234 14.9531 22.5234 12C22.5234 6.23438 17.7891 1.5 12.0234 1.5C6.21094 1.5 1.52344 6.23438 1.52344 12C1.52344 14.9531 2.74219 17.625 4.66406 19.5469C5.32031 16.9688 7.71094 15 10.5234 15H13.5234C16.2891 15 18.6797 16.9688 19.3359 19.5469ZM17.9766 20.625V20.6719C17.7891 18.3281 15.8672 16.5 13.5234 16.5H10.5234C8.13281 16.5 6.21094 18.3281 6.02344 20.6719C7.71094 21.8438 9.77344 22.5 12.0234 22.5C14.2266 22.5 16.2891 21.8438 17.9766 20.625ZM12.0234 24C7.71094 24 3.77344 21.75 1.61719 18C-0.539062 14.2969 -0.539062 9.75 1.61719 6C3.77344 2.29688 7.71094 0 12.0234 0C16.2891 0 20.2266 2.29688 22.3828 6C24.5391 9.75 24.5391 14.2969 22.3828 18C20.2266 21.75 16.2891 24 12.0234 24ZM12.0234 12C12.8203 12 13.5234 11.5781 13.9453 10.875C14.3672 10.2188 14.3672 9.32812 13.9453 8.625C13.5234 7.96875 12.8203 7.5 12.0234 7.5C11.1797 7.5 10.4766 7.96875 10.0547 8.625C9.63281 9.32812 9.63281 10.2188 10.0547 10.875C10.4766 11.5781 11.1797 12 12.0234 12ZM8.27344 9.75C8.27344 8.4375 8.97656 7.21875 10.1484 6.51562C11.2734 5.85938 12.7266 5.85938 13.8984 6.51562C15.0234 7.21875 15.7734 8.4375 15.7734 9.75C15.7734 11.1094 15.0234 12.3281 13.8984 13.0312C12.7266 13.6875 11.2734 13.6875 10.1484 13.0312C8.97656 12.3281 8.27344 11.1094 8.27344 9.75Z" fill="#1B1B1B"/>
</g>
<defs>
<clipPath id="clip0_6784_18">
<rect width="24" height="24" fill="white"/>
</clipPath>
</defs>
</svg>
