<svg width="24" height="24" viewBox="0 0 24 24" fill="none" xmlns="http://www.w3.org/2000/svg">
<g id="Size=Medium">
<path id="Vector" d="M12.3011 15.9931C13.3852 15.9931 14.386 15.4927 15.0115 14.6588L22.3921 4.44262C22.8091 3.90054 22.7257 3.19166 22.267 2.73298C21.8083 2.2743 21.0578 2.1909 20.5574 2.60788L10.3412 9.98853C9.50727 10.614 8.96519 11.6148 8.96519 12.6989C8.96519 12.9074 9.00688 13.1159 9.04858 13.3244C9.04858 13.4078 9.09028 13.4495 9.09028 13.4912L11.5088 15.9097C11.5505 15.9097 11.5922 15.9514 11.6756 15.9514C11.8841 15.9931 12.0926 15.9931 12.3011 15.9931ZM10.5497 16.8688L8.17291 14.4503C8.08952 14.4503 8.04782 14.4086 8.00612 14.4086C7.75593 14.3669 7.54744 14.3669 7.33894 14.3669C5.46251 14.3669 4.00306 15.8263 4.00306 17.7028C4.00306 17.7862 4.00306 17.9112 4.00306 18.0363C4.08646 18.7452 3.87796 19.4124 3.50268 19.9962C3.08569 20.5383 2.41852 20.9969 1.50115 20.9969H7.33894C9.17368 20.9969 10.6748 19.5375 10.6748 17.6611C10.6748 17.4526 10.6331 17.2441 10.5914 17.0356C10.5914 16.9522 10.5497 16.9105 10.5497 16.8688ZM11.9675 17.3275C11.9675 17.4526 12.0092 17.5777 12.0092 17.6611C12.0092 20.2464 9.88255 22.3313 7.33894 22.3313H1.33435C0.58378 22.3313 0 21.7475 0 20.9969C0 20.2881 0.58378 19.6626 1.33435 19.6626H1.50115C2.25172 19.6626 2.7521 18.912 2.66871 18.1614C2.66871 17.9946 2.66871 17.8279 2.66871 17.6611C2.66871 15.1174 4.75363 12.9908 7.33894 12.9908C7.42234 12.9908 7.54744 13.0325 7.67253 13.0325C7.67253 12.9074 7.67253 12.7823 7.67253 12.6989C7.67253 11.1978 8.38141 9.78003 9.59066 8.90436L19.7651 1.52372C20.8076 0.73145 22.267 0.856545 23.2261 1.77391C24.1435 2.69128 24.2686 4.19243 23.4763 5.23489L16.0956 15.4093C15.22 16.6186 13.8022 17.3275 12.3011 17.3275C12.2177 17.3275 12.0926 17.3275 11.9675 17.3275Z" fill="#1B1B1B"/>
</g>
</svg>
