<svg width="24" height="24" viewBox="0 0 24 24" fill="none" xmlns="http://www.w3.org/2000/svg">
<g id="Size=Medium" clip-path="url(#clip0_4402_171)">
<path id="Vector" d="M21.9531 23.6507C22.4188 24.1164 23.185 24.1164 23.6507 23.6507C24.1164 23.185 24.1164 22.4188 23.6507 21.9531L13.6977 12L23.6507 2.04695C24.1164 1.58122 24.1164 0.815023 23.6507 0.349296C23.185 -0.116432 22.4188 -0.116432 21.9531 0.349296L12 10.3023L2.04695 0.349296C1.58122 -0.116432 0.815023 -0.116432 0.349296 0.349296C-0.116432 0.815023 -0.116432 1.58122 0.349296 2.04695L10.3023 12L0.349296 21.9531C-0.116432 22.4188 -0.116432 23.185 0.349296 23.6507C0.815023 24.1164 1.58122 24.1164 2.04695 23.6507L12 13.6977L21.9531 23.6507Z" fill="#1B1B1B"/>
</g>
<defs>
<clipPath id="clip0_4402_171">
<rect width="24" height="24" fill="white"/>
</clipPath>
</defs>
</svg>
