<svg width="24" height="24" viewBox="0 0 24 24" fill="none" xmlns="http://www.w3.org/2000/svg">
<g id="Size=Medium">
<path id="Vector" d="M8.4 3.2C7.0875 3.2 5.925 3.9125 5.25 5C4.6125 6.125 4.6125 7.5125 5.25 8.6C5.925 9.725 7.0875 10.4 8.4 10.4C9.675 10.4 10.8375 9.725 11.5125 8.6C12.15 7.5125 12.15 6.125 11.5125 5C10.8375 3.9125 9.675 3.2 8.4 3.2ZM8.4 11.6C6.675 11.6 5.1 10.7 4.2375 9.2C3.375 7.7375 3.375 5.9 4.2375 4.4C5.1 2.9375 6.675 2 8.4 2C10.0875 2 11.6625 2.9375 12.525 4.4C13.3875 5.9 13.3875 7.7375 12.525 9.2C11.6625 10.7 10.0875 11.6 8.4 11.6ZM6.675 14.6C3.675 14.6 1.2375 17.0375 1.2 20H15.6C15.525 17.0375 13.0875 14.6 10.0875 14.6H6.675ZM6.675 13.4H10.0875C13.8 13.4 16.8 16.4 16.8 20.1125C16.8 20.7125 16.275 21.2 15.675 21.2H1.0875C0.4875 21.2 0 20.7125 0 20.1125C0 16.4 2.9625 13.4 6.675 13.4ZM19.2 13.4V10.4H16.2C15.8625 10.4 15.6 10.1375 15.6 9.8C15.6 9.5 15.8625 9.2 16.2 9.2H19.2V6.2C19.2 5.9 19.4625 5.6 19.8 5.6C20.1 5.6 20.4 5.9 20.4 6.2V9.2H23.4C23.7 9.2 24 9.5 24 9.8C24 10.1375 23.7 10.4 23.4 10.4H20.4V13.4C20.4 13.7375 20.1 14 19.8 14C19.4625 14 19.2 13.7375 19.2 13.4Z" fill="#1B1B1B"/>
</g>
</svg>
