<svg width="24" height="24" viewBox="0 0 24 24" fill="none" xmlns="http://www.w3.org/2000/svg">
<g id="Size=Medium" clip-path="url(#clip0_4402_118)">
<path id="Vector" d="M12.0234 1.5C8.22656 1.5 4.80469 3.51562 2.92969 6.75C1.00781 10.0312 1.00781 14.0156 2.92969 17.25C4.80469 20.5312 8.22656 22.5 12.0234 22.5C15.7734 22.5 19.1953 20.5312 21.0703 17.25C22.9922 14.0156 22.9922 10.0312 21.0703 6.75C19.1953 3.51562 15.7734 1.5 12.0234 1.5ZM12.0234 24C7.71094 24 3.77344 21.75 1.61719 18C-0.539062 14.2969 -0.539062 9.75 1.61719 6C3.77344 2.29688 7.71094 0 12.0234 0C16.2891 0 20.2266 2.29688 22.3828 6C24.5391 9.75 24.5391 14.2969 22.3828 18C20.2266 21.75 16.2891 24 12.0234 24ZM17.0391 9.5625L11.0391 15.5625C10.7578 15.8438 10.2422 15.8438 9.96094 15.5625L6.96094 12.5625C6.67969 12.2812 6.67969 11.7656 6.96094 11.4844C7.24219 11.2031 7.75781 11.2031 8.03906 11.4844L10.5234 13.9688L15.9609 8.48438C16.2422 8.20312 16.7578 8.20312 17.0391 8.48438C17.3203 8.76562 17.3203 9.28125 17.0391 9.5625Z" fill="#1B1B1B"/>
</g>
<defs>
<clipPath id="clip0_4402_118">
<rect width="24" height="24" fill="white"/>
</clipPath>
</defs>
</svg>
