<svg width="24" height="24" viewBox="0 0 24 24" fill="none" xmlns="http://www.w3.org/2000/svg">
<g id="Size=Medium">
<path id="Vector" d="M9.6875 1.875L8.9375 3H16.0156L15.2656 1.875C15.125 1.64062 14.8906 1.5 14.6562 1.5H10.2969C10.0625 1.5 9.82812 1.64062 9.6875 1.875ZM16.5781 1.07812L17.75 3H20H21.5H22.25C22.625 3 23 3.375 23 3.75C23 4.17188 22.625 4.5 22.25 4.5H21.5V20.25C21.5 22.3594 19.8125 24 17.75 24H7.25C5.14062 24 3.5 22.3594 3.5 20.25V4.5H2.75C2.32812 4.5 2 4.17188 2 3.75C2 3.375 2.32812 3 2.75 3H3.5H5H7.20312L8.42188 1.07812C8.79688 0.421875 9.54688 0 10.2969 0H14.6562C15.4062 0 16.1562 0.421875 16.5312 1.07812H16.5781ZM5 4.5V20.25C5 21.5156 5.98438 22.5 7.25 22.5H17.75C18.9688 22.5 20 21.5156 20 20.25V4.5H5ZM8.75 8.25V18.75C8.75 19.1719 8.375 19.5 8 19.5C7.57812 19.5 7.25 19.1719 7.25 18.75V8.25C7.25 7.875 7.57812 7.5 8 7.5C8.375 7.5 8.75 7.875 8.75 8.25ZM13.25 8.25V18.75C13.25 19.1719 12.875 19.5 12.5 19.5C12.0781 19.5 11.75 19.1719 11.75 18.75V8.25C11.75 7.875 12.0781 7.5 12.5 7.5C12.875 7.5 13.25 7.875 13.25 8.25ZM17.75 8.25V18.75C17.75 19.1719 17.375 19.5 17 19.5C16.5781 19.5 16.25 19.1719 16.25 18.75V8.25C16.25 7.875 16.5781 7.5 17 7.5C17.375 7.5 17.75 7.875 17.75 8.25Z" fill="#1B1B1B"/>
</g>
</svg>
