<svg width="24" height="24" viewBox="0 0 24 24" fill="none" xmlns="http://www.w3.org/2000/svg">
<g id="Size=Medium" clip-path="url(#clip0_6770_27)">
<path id="Vector" d="M3 22.5H4.5V24H3C1.3125 24 0 22.6875 0 21V3C0 1.35938 1.3125 0 3 0H10.3125C10.875 0 11.4844 0.28125 11.9062 0.703125L17.2969 6.09375C17.7188 6.51562 18 7.125 18 7.6875V13.5H16.5V9H11.25C9.98438 9 9 8.01562 9 6.75V1.5H3C2.15625 1.5 1.5 2.20312 1.5 3V21C1.5 21.8438 2.15625 22.5 3 22.5ZM16.4531 7.5C16.4062 7.40625 16.3594 7.26562 16.2656 7.17188L10.8281 1.73438C10.7344 1.64062 10.5938 1.59375 10.5 1.54688V6.75C10.5 7.17188 10.8281 7.5 11.25 7.5H16.4531ZM14.25 16.5H15.75C17.1562 16.5 18.375 17.7188 18.375 19.125C18.375 20.5781 17.1562 21.75 15.75 21.75H15V23.25C15 23.6719 14.625 24 14.25 24C13.8281 24 13.5 23.6719 13.5 23.25V21V17.25C13.5 16.875 13.8281 16.5 14.25 16.5ZM15.75 20.25C16.3594 20.25 16.875 19.7812 16.875 19.125C16.875 18.5156 16.3594 18 15.75 18H15V20.25H15.75ZM8.25 16.5H9.75C11.1562 16.5 12.375 17.7188 12.375 19.125C12.375 20.5781 11.1562 21.75 9.75 21.75H9V23.25C9 23.6719 8.625 24 8.25 24C7.82812 24 7.5 23.6719 7.5 23.25V21V17.25C7.5 16.875 7.82812 16.5 8.25 16.5ZM9.75 20.25C10.3594 20.25 10.875 19.7812 10.875 19.125C10.875 18.5156 10.3594 18 9.75 18H9V20.25H9.75ZM19.5 17.25C19.5 16.875 19.8281 16.5 20.25 16.5H21.75H23.25C23.625 16.5 24 16.875 24 17.25C24 17.6719 23.625 18 23.25 18H22.5V23.25C22.5 23.6719 22.125 24 21.75 24C21.3281 24 21 23.6719 21 23.25V18H20.25C19.8281 18 19.5 17.6719 19.5 17.25Z" fill="#1B1B1B"/>
</g>
<defs>
<clipPath id="clip0_6770_27">
<rect width="24" height="24" fill="white"/>
</clipPath>
</defs>
</svg>
