<svg width="24" height="24" viewBox="0 0 24 24" fill="none" xmlns="http://www.w3.org/2000/svg">
<g id="Size=Medium" clip-path="url(#clip0_4402_108)">
<path id="Vector" d="M12.599 0.240805L21.7656 9.65886C22.0781 9.97993 22.0781 10.5686 21.7656 10.8896C21.4531 11.2107 20.8802 11.2107 20.5677 10.8896L12.8073 2.91639L12.8073 23.1438C12.8073 23.5719 12.4427 24 11.974 24C11.5573 24 11.1406 23.5719 11.1406 23.1438L11.1406 2.91639L3.43229 10.8896C3.11979 11.2107 2.54688 11.2107 2.23438 10.8896C1.92187 10.5686 1.92187 9.97993 2.23438 9.65886L11.401 0.240805C11.7135 -0.080267 12.2865 -0.080267 12.599 0.240805Z" fill="#1B1B1B"/>
</g>
<defs>
<clipPath id="clip0_4402_108">
<rect width="24" height="24" fill="white"/>
</clipPath>
</defs>
</svg>
