<svg width="24" height="24" viewBox="0 0 24 24" fill="none" xmlns="http://www.w3.org/2000/svg">
<g id="Size=Medium">
<path id="Vector" d="M10.7031 1.78125L10.0469 4.03125C9.90625 4.59375 9.48438 5.01562 9.01562 5.25C8.64062 5.4375 8.3125 5.625 7.98438 5.8125C7.5625 6.14062 6.95312 6.28125 6.39062 6.14062L4.14062 5.57812C4.04688 5.57812 4 5.57812 3.95312 5.57812C3.67188 5.90625 3.4375 6.23438 3.25 6.60938L3.01562 6.9375C2.82812 7.3125 2.64062 7.6875 2.5 8.0625C2.5 8.10938 2.54688 8.20312 2.59375 8.25L4.23438 9.89062C4.60938 10.3125 4.79688 10.9219 4.75 11.4375C4.75 11.625 4.75 11.8125 4.75 12C4.75 12.2344 4.75 12.4219 4.75 12.6094C4.79688 13.125 4.60938 13.6875 4.23438 14.1094L2.59375 15.7969C2.54688 15.8438 2.5 15.9375 2.5 15.9844C2.64062 16.3594 2.82812 16.7344 3.01562 17.1094L3.20312 17.4375C3.4375 17.7656 3.67188 18.1406 3.90625 18.4688C4 18.4688 4.04688 18.4688 4.14062 18.4688L6.39062 17.9062C6.95312 17.7656 7.5625 17.9062 7.98438 18.1875C8.3125 18.4219 8.64062 18.6094 9.01562 18.7969C9.48438 19.0312 9.90625 19.4531 10.0469 20.0156L10.7031 22.2656C10.7031 22.3125 10.75 22.3594 10.7969 22.4062C11.2656 22.5 11.7344 22.5 12.25 22.5C12.7188 22.5 13.1875 22.5 13.6562 22.4062C13.7031 22.3594 13.75 22.3125 13.75 22.2656L14.4062 20.0156C14.5469 19.4531 14.9688 19.0312 15.4375 18.7969C15.8125 18.6094 16.1406 18.4219 16.4688 18.1875C16.9375 17.9062 17.5 17.7656 18.0625 17.9062L20.3125 18.4688C20.4062 18.4688 20.4531 18.4688 20.5469 18.4688C20.7812 18.1406 21.0156 17.7656 21.25 17.4375L21.4375 17.1094C21.625 16.7344 21.8125 16.3594 21.9531 15.9844C21.9531 15.9375 21.9062 15.8438 21.8594 15.7969L20.2188 14.1094C19.8438 13.6875 19.6562 13.125 19.7031 12.6094C19.7031 12.4219 19.75 12.2344 19.75 12C19.75 11.8125 19.7031 11.625 19.7031 11.4375C19.6562 10.9219 19.8438 10.3125 20.2188 9.89062L21.8594 8.25C21.9062 8.20312 21.9531 8.10938 21.9531 8.0625C21.8125 7.6875 21.625 7.3125 21.4375 6.9375L21.25 6.60938C21.0156 6.23438 20.7812 5.90625 20.5469 5.57812C20.4531 5.57812 20.4062 5.57812 20.3125 5.57812L18.0625 6.14062C17.5 6.28125 16.9375 6.14062 16.4688 5.85938C16.1406 5.625 15.8125 5.4375 15.4375 5.25C14.9688 5.01562 14.5469 4.59375 14.4062 4.03125L13.75 1.78125C13.75 1.73438 13.7031 1.64062 13.6562 1.59375C13.1875 1.54688 12.7188 1.5 12.25 1.5C11.7344 1.5 11.2656 1.54688 10.7969 1.59375C10.75 1.64062 10.7031 1.73438 10.7031 1.78125ZM12.25 0C12.8594 0 13.4219 0.046875 14.0312 0.140625C14.125 0.1875 14.1719 0.1875 14.2656 0.234375C14.6875 0.46875 15.0625 0.890625 15.2031 1.35938L15.8594 3.60938C15.8594 3.70312 15.9531 3.84375 16.0938 3.89062C16.5156 4.07812 16.9375 4.3125 17.3125 4.59375C17.4531 4.6875 17.5938 4.73438 17.6875 4.6875L19.9844 4.125C20.4531 3.98438 21.0156 4.07812 21.4375 4.35938C21.4844 4.40625 21.5312 4.45312 21.625 4.54688C21.9531 4.92188 22.2344 5.39062 22.5156 5.85938L22.75 6.1875V6.23438C22.9844 6.70312 23.2188 7.17188 23.4062 7.64062C23.4531 7.73438 23.4531 7.78125 23.4531 7.875C23.5 8.39062 23.3125 8.90625 22.9375 9.28125L21.2969 10.9688C21.25 11.0156 21.2031 11.1562 21.2031 11.2969C21.2031 11.5312 21.25 11.7656 21.25 12C21.25 12.2344 21.2031 12.4688 21.2031 12.7031C21.2031 12.8906 21.25 13.0312 21.2969 13.0781L22.9375 14.7656C23.3125 15.1406 23.5 15.6562 23.4531 16.1719C23.4531 16.2188 23.4531 16.3125 23.4062 16.4062C23.2188 16.875 22.9844 17.3438 22.75 17.8125L22.5156 18.1875C22.2344 18.6562 21.9531 19.0781 21.5781 19.5C21.5312 19.5938 21.4844 19.6406 21.4375 19.6875C21.0156 19.9688 20.4531 20.0625 19.9375 19.9219L17.6875 19.3594C17.5938 19.3125 17.4531 19.3594 17.3125 19.4531C16.9375 19.6875 16.5156 19.9219 16.0938 20.1562C15.9531 20.2031 15.8594 20.3438 15.8594 20.4375L15.2031 22.6406C15.0625 23.1562 14.6875 23.5781 14.2656 23.8125C14.1719 23.8594 14.125 23.8594 14.0312 23.9062C13.4219 23.9531 12.8594 24 12.25 24C11.6406 24 11.0312 23.9531 10.4219 23.9062C10.3281 23.8594 10.2812 23.8594 10.1875 23.8125C9.76562 23.5781 9.39062 23.1562 9.25 22.6406L8.59375 20.4375C8.59375 20.3438 8.5 20.2031 8.35938 20.1562C7.9375 19.9688 7.51562 19.7344 7.14062 19.4531C7 19.3594 6.85938 19.3594 6.76562 19.3594L4.51562 19.9219C4 20.0625 3.48438 19.9688 3.0625 19.6875C2.96875 19.6406 2.92188 19.5938 2.875 19.5469C2.5 19.125 2.21875 18.6562 1.9375 18.1875L1.75 17.8594L1.70312 17.8125C1.46875 17.3438 1.23438 16.875 1.04688 16.4062C1.04688 16.3125 1 16.2656 1 16.1719C1 15.6562 1.14062 15.1406 1.51562 14.7656L3.15625 13.0781C3.20312 13.0312 3.25 12.8906 3.25 12.7031C3.25 12.5156 3.25 12.2344 3.25 12C3.25 11.7656 3.25 11.5312 3.25 11.2969C3.25 11.1562 3.20312 11.0156 3.15625 10.9688L1.51562 9.28125C1.14062 8.90625 1 8.39062 1 7.875C1 7.78125 1.04688 7.73438 1.04688 7.64062C1.23438 7.17188 1.46875 6.70312 1.70312 6.23438L1.75 6.1875L1.9375 5.85938C2.21875 5.39062 2.54688 4.92188 2.875 4.54688C2.92188 4.45312 2.96875 4.40625 3.0625 4.35938C3.48438 4.07812 4 3.98438 4.51562 4.125L6.76562 4.6875C6.85938 4.73438 7 4.6875 7.14062 4.59375C7.51562 4.35938 7.9375 4.07812 8.35938 3.89062C8.5 3.84375 8.59375 3.70312 8.59375 3.60938L9.25 1.35938C9.39062 0.890625 9.76562 0.46875 10.1875 0.234375C10.2812 0.1875 10.3281 0.1875 10.4219 0.140625C11.0312 0.046875 11.6406 0 12.25 0ZM9.625 12C9.625 12.9844 10.0938 13.8281 10.9375 14.2969C11.7344 14.7656 12.7188 14.7656 13.5625 14.2969C14.3594 13.8281 14.875 12.9844 14.875 12C14.875 11.0625 14.3594 10.2188 13.5625 9.75C12.7188 9.28125 11.7344 9.28125 10.9375 9.75C10.0938 10.2188 9.625 11.0625 9.625 12ZM16.375 12C16.375 13.5 15.5781 14.8594 14.3125 15.6094C13 16.3125 11.4531 16.3125 10.1875 15.6094C8.875 14.8594 8.125 13.5 8.125 12C8.125 10.5469 8.875 9.1875 10.1875 8.4375C11.4531 7.73438 13 7.73438 14.3125 8.4375C15.5781 9.1875 16.375 10.5469 16.375 12Z" fill="#1B1B1B"/>
</g>
</svg>
