<svg width="24" height="24" viewBox="0 0 24 24" fill="none" xmlns="http://www.w3.org/2000/svg">
<g id="Size=Medium">
<path id="Vector" d="M3 22.5H4.5V24H3C1.3125 24 0 22.6875 0 21V3C0 1.35938 1.3125 0 3 0H10.3125C10.875 0 11.4844 0.28125 11.9062 0.703125L17.2969 6.09375C17.7188 6.51562 18 7.125 18 7.6875V13.5H16.5V9H11.25C9.98438 9 9 8.01562 9 6.75V1.5H3C2.15625 1.5 1.5 2.20312 1.5 3V21C1.5 21.8438 2.15625 22.5 3 22.5ZM16.4531 7.5C16.4062 7.40625 16.3594 7.26562 16.2656 7.17188L10.8281 1.73438C10.7344 1.64062 10.5938 1.59375 10.5 1.54688V6.75C10.5 7.17188 10.8281 7.5 11.25 7.5H16.4531ZM9.375 16.5H10.125C11.1562 16.5 12 17.3438 12 18.375V18.75C12 19.1719 11.625 19.5 11.25 19.5C10.8281 19.5 10.5 19.1719 10.5 18.75V18.375C10.5 18.1875 10.3125 18 10.125 18H9.375C9.14062 18 9 18.1875 9 18.375V22.125C9 22.3594 9.14062 22.5 9.375 22.5H10.125C10.3125 22.5 10.5 22.3594 10.5 22.125V21.75C10.5 21.375 10.8281 21 11.25 21C11.625 21 12 21.375 12 21.75V22.125C12 23.2031 11.1562 24 10.125 24H9.375C8.29688 24 7.5 23.2031 7.5 22.125V18.375C7.5 17.3438 8.29688 16.5 9.375 16.5ZM15.6094 16.5H17.25C17.625 16.5 18 16.875 18 17.25C18 17.6719 17.625 18 17.25 18H15.6094C15.2344 18 15 18.2812 15 18.6562C15 18.8906 15.1406 19.0781 15.3281 19.2188L17.1094 19.9688C17.8594 20.2969 18.375 21.0938 18.375 21.8906C18.375 23.0625 17.3906 24 16.2188 24H14.25C13.8281 24 13.5 23.6719 13.5 23.25C13.5 22.875 13.8281 22.5 14.25 22.5H16.2188C16.5938 22.5 16.875 22.2656 16.875 21.8906C16.875 21.6562 16.7344 21.4219 16.5 21.3281L14.7188 20.5781C13.9688 20.25 13.5 19.4531 13.5 18.6562C13.5 17.4844 14.4375 16.5 15.6094 16.5ZM20.25 16.5C20.625 16.5 21 16.875 21 17.25V18.75C21 19.8281 21.2344 20.9062 21.75 21.8438C22.2188 20.9062 22.5 19.8281 22.5 18.75V17.25C22.5 16.875 22.8281 16.5 23.25 16.5C23.625 16.5 24 16.875 24 17.25V18.75C24 20.3906 23.4844 21.9844 22.5938 23.3438L22.3594 23.6719C22.2188 23.9062 21.9844 24 21.75 24C21.4688 24 21.2344 23.9062 21.0938 23.6719L20.8594 23.3438C19.9688 21.9844 19.5 20.3906 19.5 18.75V17.25C19.5 16.875 19.8281 16.5 20.25 16.5Z" fill="#1B1B1B"/>
</g>
</svg>
