<svg width="24" height="24" viewBox="0 0 24 24" fill="none" xmlns="http://www.w3.org/2000/svg">
<g id="Size=Medium">
<path id="Vector" d="M8 1.5C7.15625 1.5 6.5 2.20312 6.5 3V21C6.5 21.8438 7.15625 22.5 8 22.5H17C17.7969 22.5 18.5 21.8438 18.5 21V3C18.5 2.20312 17.7969 1.5 17 1.5H8ZM5 3C5 1.35938 6.3125 0 8 0H17C18.6406 0 20 1.35938 20 3V21C20 22.6875 18.6406 24 17 24H8C6.3125 24 5 22.6875 5 21V3ZM11 18.75H14C14.375 18.75 14.75 19.125 14.75 19.5C14.75 19.9219 14.375 20.25 14 20.25H11C10.5781 20.25 10.25 19.9219 10.25 19.5C10.25 19.125 10.5781 18.75 11 18.75Z" fill="#1B1B1B"/>
</g>
</svg>
