<svg width="16" height="16" viewBox="0 0 16 16" fill="none" xmlns="http://www.w3.org/2000/svg">
<g id="End Icon" clip-path="url(#clip0_7493_51)">
<path id="Vector" d="M10.5 0H15.5C15.75 0 16 0.25 16 0.5V5.5C16 5.78125 15.75 6 15.5 6C15.2188 6 15 5.78125 15 5.5V1.71875L7.34375 9.375C7.15625 9.5625 6.8125 9.5625 6.625 9.375C6.4375 9.1875 6.4375 8.84375 6.625 8.65625L14.2812 1H10.5C10.2188 1 10 0.78125 10 0.5C10 0.25 10.2188 0 10.5 0ZM2 1H6.5C6.75 1 7 1.25 7 1.5C7 1.78125 6.75 2 6.5 2H2C1.4375 2 1 2.46875 1 3V14C1 14.5625 1.4375 15 2 15H13C13.5312 15 14 14.5625 14 14V9.5C14 9.25 14.2188 9 14.5 9C14.75 9 15 9.25 15 9.5V14C15 15.125 14.0938 16 13 16H2C0.875 16 0 15.125 0 14V3C0 1.90625 0.875 1 2 1Z" fill="#298319"/>
</g>
<defs>
<clipPath id="clip0_7493_51">
<rect width="16" height="16" fill="white"/>
</clipPath>
</defs>
</svg>
