<svg width="24" height="24" viewBox="0 0 24 24" fill="none" xmlns="http://www.w3.org/2000/svg">
<g id="Size=Medium">
<path id="Vector" d="M19.5 21V9H14.25C12.9844 9 12 8.01562 12 6.75V1.5H6C5.15625 1.5 4.5 2.20312 4.5 3V21C4.5 21.8438 5.15625 22.5 6 22.5H18C18.7969 22.5 19.5 21.8438 19.5 21ZM19.4531 7.5C19.4062 7.40625 19.3594 7.26562 19.2656 7.17188L13.8281 1.73438C13.7344 1.64062 13.5938 1.59375 13.5 1.54688V6.75C13.5 7.17188 13.8281 7.5 14.25 7.5H19.4531ZM3 3C3 1.35938 4.3125 0 6 0H13.3125C13.875 0 14.4844 0.28125 14.9062 0.703125L20.2969 6.09375C20.7188 6.51562 21 7.125 21 7.6875V21C21 22.6875 19.6406 24 18 24H6C4.3125 24 3 22.6875 3 21V3Z" fill="#1B1B1B"/>
</g>
</svg>
